<svg width="156" height="217" viewBox="0 0 156 217" fill="none" xmlns="http://www.w3.org/2000/svg">
<path d="M78.3203 26.4219L78.3184 26.459C77.9578 32.8903 77.1351 40.5824 77.1289 47.7969C76.6593 64.2288 90.3632 72.8888 102.423 77.5654L102.48 77.5879L102.539 77.6094C104.47 78.3189 106.46 78.957 108.506 79.5068C107.33 79.812 106.167 80.1289 105.018 80.4531L104.931 80.4775L104.844 80.5049C100.1 81.9765 94.7612 85.0102 91.5967 89.2529C87.52 94.1371 82.3321 100.263 79.8828 107.419C75.7983 119.034 72.7488 131.277 69.6035 142.597C69.2806 138.797 68.8905 134.848 68.25 130.874L68.2314 130.76L68.209 130.646C65.8688 118.667 59.2132 108.491 47.3965 101.081H47.3975C37.3346 94.7218 26.0751 86.9452 11.0537 84.3818C28.4259 81.3362 41.824 74.9463 52.2227 65.9277C63.3036 56.3174 70.5328 44.1107 75.7119 30.9355L75.7197 30.918L75.7266 30.9004C76.9064 27.8502 77.8345 24.5932 78.6328 21.4053C78.5291 23.063 78.4241 24.7317 78.3203 26.4219Z" stroke="#81ADC8" stroke-width="14"/>
<path d="M124.168 151.952C124.15 152.448 124.138 152.942 124.137 153.428C123.911 160.094 129.022 163.71 133.483 165.661C132.177 166.345 130.912 167.292 129.992 168.491C128.471 170.313 126.298 172.849 125.262 175.867C124.406 178.301 123.662 180.83 122.969 183.321C121.754 179.071 119.093 175.447 114.799 172.756C112.151 171.083 109.134 169.041 105.482 167.614C109.989 166.226 113.723 164.143 116.816 161.461C119.978 158.719 122.337 155.461 124.168 151.952Z" stroke="#CD4631" stroke-width="8"/>
<path d="M34.8975 190.194C35.2276 193.547 37.6947 195.569 40.0527 196.775C39.5075 197.153 39.0005 197.609 38.5898 198.144C37.719 199.187 36.4238 200.7 35.7119 202.513L35.5869 202.852C35.2339 203.856 34.9115 204.89 34.6074 205.925C33.6771 203.846 32.1276 202.056 29.9082 200.664H29.9092C28.5928 199.832 27.0864 198.821 25.3184 197.983C27.5969 197.127 29.5474 195.965 31.2109 194.522C32.6983 193.232 33.9026 191.765 34.8975 190.194Z" stroke="black" stroke-width="6"/>
</svg>
