<svg width="158" height="168" viewBox="0 0 158 168" fill="none" xmlns="http://www.w3.org/2000/svg">
<path d="M112.399 91.8605C111.899 88.2604 111.671 84.8992 110.934 81.3886C109.89 76.415 106.333 71.9434 103.87 67.5554C99.0521 58.9727 93.9986 49.274 84.8598 44.737C76.2108 40.4433 69.0087 42.13 60.3806 45.1895C55.0875 47.0665 51.4968 57.4715 49.9639 62.2548C47.454 70.0872 45.9668 76.6135 47.3598 84.9116C48.4241 91.2522 50.6115 100.804 54.977 105.823C57.0262 108.179 58.1796 110.108 60.8038 111.899C62.5559 113.095 64.5622 114.257 66.1098 115.713C68.991 118.423 73.3928 118.872 76.3637 121.822C78.9779 124.417 82.7561 125.367 83.6553 129.385C84.2268 131.938 85.5437 137.05 88.9613 137.239C97.4381 137.706 107.992 134.388 114.71 129.385C117.659 127.189 117.999 122.348 115.621 119.462C112.803 116.042 112.723 108.973 112.399 104.789C112.119 101.177 110.207 97.2459 111.943 93.6058C114.711 87.8047 115.372 81.079 114.45 74.6659C113.121 65.43 114.402 57.3716 108.004 49.6821C105.551 46.7338 102.563 43.9561 99.8337 41.2464C96.4202 37.8572 93.1026 34.3509 87.9197 34.2652C80.082 34.1355 70.5187 34.1666 64.4822 39.9536C61.8926 42.4361 58.2329 45.3849 57.0277 48.8418C54.8493 55.0904 55.733 61.1135 56.4418 67.5877C57.7931 79.9314 57.6995 95.0808 67.2816 104.595C69.9546 107.249 71.4045 103.134 71.8389 101.169C72.5534 97.9371 71.2972 94.4078 70.9275 91.2141C70.4172 86.8064 69.2489 82.7039 67.8676 78.4798C67.1129 76.1718 63.6703 60.7258 58.8181 64.2587C53.0627 68.4493 54.3857 84.0947 55.9535 89.4688C57.611 95.1502 62.0269 105.987 69.9835 103.948C77.4324 102.04 79.7776 93.215 75.4197 87.4972C73.3692 84.8069 65.952 78.2015 65.0681 85.3318C64.1705 92.5732 69.9848 101.387 75.1592 105.791C78.4626 108.602 85.3856 110.951 87.0733 104.918C88.0664 101.368 81.552 95.9649 78.2842 96.644C70.5993 98.241 79.4661 113.226 81.279 116.133C83.4275 119.579 96.0727 127.031 93.5186 118.04C92.8281 115.609 86.7366 108.67 83.7204 110.542C78.3634 113.866 89.8187 125.714 92.6723 126.961C96.9415 128.826 96.6965 124.339 94.8207 121.983C93.1863 119.931 89.6201 117.295 91.0447 122.145C92.0228 125.475 95.1613 133.357 99.8337 132.455C104.775 131.501 102.036 119.725 101.006 117.071C100.143 114.848 98.3552 110.293 95.9926 109.12C93.9002 108.081 95.5634 113.202 95.7647 113.709C97.037 116.916 100.308 124.763 104.651 124.763C109.943 124.763 105.214 112.567 104.521 110.897C103.771 109.088 103.016 105.922 101.006 105.015C99.3452 104.266 100.81 110.28 101.006 110.897C101.502 112.466 104.925 126.661 108.883 124.892C113.707 122.737 110.594 112.985 109.73 109.475C108.845 105.884 107.655 102.399 106.67 98.8418C106.117 96.8457 105.915 97.4469 106.409 99.165C106.663 100.048 107.697 101.952 108.883 101.363C110.992 100.316 110.733 95.7689 110.934 93.8967C111.712 86.6334 111.039 78.9009 110.511 71.6278C110.158 66.7661 109.713 63.007 107.158 58.9904C103.357 53.0153 102.667 47.2558 96.1228 43.121C91.2539 40.0446 85.5431 36.0508 79.8793 39.2425C72.5521 43.3716 67.0722 52.4894 63.8962 59.9924C62.6447 62.9491 61.3656 72.4779 67.1189 67.8463C71.0119 64.7122 73.4903 60.7096 75.5173 56.2109C77.608 51.5709 80.3421 46.5852 79.8142 41.3434C78.7758 31.033 67.8794 47.9357 66.8259 50.2315C64.8177 54.6078 57.3315 72.2273 64.9379 74.9245C67.7092 75.9072 70.6976 72.833 72.3598 70.9814C76.5153 66.3522 79.8848 60.2839 80.628 54.0454C81.0537 50.4715 80.4218 45.4228 76.7869 43.5089C72.031 41.0047 66.746 50.1826 65.1332 53.205C61.8288 59.3978 59.7194 66.103 59.1762 73.1146C58.8635 77.1502 58.3367 83.4711 62.5941 85.8489C65.9737 87.7363 70.337 82.7689 72.1645 80.6129C76.7718 75.1772 79.6811 69.0068 82.1254 62.3841C83.9494 57.4421 84.8151 51.5881 83.3949 46.4177C82.1649 41.9398 77.4249 48.5268 76.6241 49.7791C71.6223 57.6009 69.4373 67.4237 67.9978 76.4759C67.2329 81.2857 65.7375 89.0482 69.072 93.2503C76.6474 102.797 86.9648 76.8767 87.9848 73.2438C89.7203 67.0623 90.6436 60.1898 89.8077 53.7868C89.0031 47.6245 85.1014 55.9471 84.3389 57.9562C81.8088 64.6231 80.9601 72.201 80.4327 79.2555C80.0603 84.2358 79.1038 91.2682 81.0186 96.1268C82.7832 100.604 86.4797 98.2391 88.3754 95.4158C92.4723 89.3141 93.5637 81.8751 94.2348 74.7306C94.8024 68.6878 94.7759 62.2666 93.9092 56.2432C92.906 49.2704 90.379 63.6496 90.1983 64.7758C88.7511 73.7963 87.8267 83.0488 87.7895 92.1837C87.7699 96.9855 86.1359 110.205 91.5655 113.257C94.6114 114.969 97.3064 110.746 98.5642 108.57C102.636 101.529 102.643 91.9062 102.08 84.0712C101.68 78.5166 100.987 72.9924 100.127 67.4908C99.7486 65.074 99.5346 62.2342 98.3363 60.0247C96.6815 56.9733 96.0778 71.1555 96.0902 71.951C96.1323 74.642 98.5229 109.529 102.894 107.439C105.203 106.335 105.442 99.8846 105.628 97.9045C106.506 88.5656 104.99 78.7728 103.317 69.5916C103.192 68.9096 101.413 61.9379 101.396 61.9963C99.9304 67.0094 100.68 73.352 100.68 78.4798C100.68 84.3838 100.378 90.4155 101.852 96.1915C102.449 98.5325 103.743 101.273 104.912 97.6136C108.556 86.2019 105.251 72.1067 102.145 60.8004C101.324 57.81 101.199 59.9744 101.396 61.6731C101.915 66.141 102.551 71.1138 104.196 75.3124C104.471 76.0153 106.477 80.4483 107.939 78.6737C109.351 76.9601 107.837 72.0427 107.353 70.2703C105.641 63.9914 102.396 58.1733 98.9548 52.6879C97.0979 49.7283 94.958 46.1733 91.3376 45.1249C82.1181 42.455 83.1029 70.0072 83.2322 73.6963C83.4456 79.7884 84.1896 85.7952 85.9991 91.6343C86.2746 92.5232 88.0401 98.1073 89.5147 95.5451C91.677 91.7879 88.0416 84.5453 86.3572 81.2594C84.8205 78.2616 79.4148 67.6705 75.2244 67.814C70.764 67.9667 70.8067 76.5308 70.9275 79.2555C71.27 86.981 73.0267 94.607 76.5264 101.557C78.2217 104.923 81.1962 108.635 85.0876 109.508C86.6904 109.867 90.2656 109.414 89.71 106.987C89.155 104.562 85.909 103.221 84.0785 102.009C80.4338 99.5967 76.9942 97.0013 73.0759 95.0279C66.3966 91.664 72.816 102.912 74.085 105.338C76.1379 109.264 78.9252 114.228 83.3298 115.939C85.1917 116.663 85.7051 115.365 84.1762 114.226C81.2037 112.013 78.2577 109.769 75.2244 107.633C74.0183 106.784 69.6839 102.219 67.9978 102.591C67.9041 102.612 75.564 112.575 76.9496 113.645C81.6781 117.296 67.3457 106.527 62.3988 103.173C58.5448 100.559 60.6912 101.897 62.9197 104.078C64.9949 106.108 66.897 108.273 68.9092 110.348C70.576 112.066 72.8395 111.144 75.2244 111.996C78.6074 113.205 82.1225 117.224 86.0316 114.42C89.8056 111.714 89.4641 110.849 91.3051 115.81C93.5176 121.773 94.6099 128.088 95.9926 134.265C96.4639 136.371 97.1583 133.832 97.49 132.972C98.3732 130.683 99.4604 128.073 99.5082 125.603C99.5946 121.141 95.9436 119.839 93.0954 123.567C92.2518 124.671 88.7235 132.227 93.0629 130.257C95.2382 129.27 96.0718 127.859 96.5785 125.539C98.1184 118.489 98.0988 110.772 97.49 103.625C97.3293 101.739 97.1019 92.548 94.2022 91.8282C90.8218 90.9891 89.1711 104.323 88.9613 106.276C88.3899 111.594 87.3497 116.988 88.3754 122.307C89.2977 127.089 91.5412 125.452 92.9327 121.725C95.1381 115.818 95.3111 108.828 95.0486 102.623C94.8663 98.3163 94.347 94.1488 93.3559 89.9536C93.0353 88.5966 92.7243 85.3277 91.2725 84.4268C88.8018 82.8935 88.4325 93.2202 88.3754 94.1553C88.1958 97.0968 87.2911 105.878 87.822 102.979C89.8898 91.6866 86.1308 78.0248 80.0421 68.4604C72.5394 56.675 64.4171 76.6509 64.4171 83.3279C64.4171 84.4862 64.5477 88.5654 66.6957 87.5296C70.4974 85.6961 69.9871 78.6599 69.9509 75.377C69.9143 72.0475 69.2927 62.2866 65.5238 60.3802C60.9739 58.0788 60.8778 74.2939 60.8363 75.5709" stroke="#FFD700" stroke-width="7.02381" stroke-linecap="round" stroke-linejoin="round"/>
<path d="M91.8906 146.547C94.9871 145.947 98.2151 145.152 101.298 144.769C104.046 144.428 107.823 141.204 110.283 139.889C112.542 138.681 115.369 138.418 117.542 136.98C118.396 136.414 121.326 132.437 121.188 134.911C121.102 136.437 118.899 139.053 118.225 140.503C117.021 143.093 114.288 145.62 112.073 147.42C109.672 149.37 107.305 150.982 104.521 152.365C101.872 153.68 98.5103 154.431 96.2526 156.437C94.6523 157.859 97.3442 157.912 98.6615 158.15C101.157 158.601 103.696 158.123 105.725 156.728C108.139 155.069 111.498 153.417 114.286 152.494C116.774 151.671 118.377 150.108 120.602 149.003C121.472 148.571 124.626 147.888 122.652 149.456C121.707 150.207 121.709 152.234 121.188 153.27C120.529 154.577 119.012 155.826 117.9 156.76C115.468 158.803 112.825 161.16 110.055 162.707C108.872 163.368 113.984 163.886 114.156 164" stroke="#4D4D4D" stroke-width="7.02381" stroke-linecap="round" stroke-linejoin="round"/>
<path d="M88.3751 132.003C88.3751 126.035 88.9611 120.239 88.9611 114.291C88.9611 106.938 86.672 99.6837 84.7293 92.636C82.7132 85.3218 80.1748 78.0307 75.4845 71.9508C72.6988 68.3397 69.782 62.19 64.4819 62.19C61.3417 62.19 60.8361 65.0189 60.8361 67.4259C60.8361 71.9863 63.3893 75.945 67.1512 78.4795C71.3009 81.2754 76.6141 81.9284 81.2137 83.7155C85.0399 85.202 88.9323 86.9818 91.7605 83.1337C97.3315 75.5537 98.6892 66.5236 98.3361 57.4065C98.3013 56.5084 96.9181 53.4491 95.8621 54.4976C93.8134 56.5318 92.5392 60.3045 92.4767 63.1596C92.1972 75.9245 93.9183 89.7933 99.0522 101.556C100.202 104.191 101.367 106.826 102.763 109.346C103.844 111.296 104.198 113.603 105.498 115.39C106.236 116.404 111.764 122.824 109.469 119.785" stroke="#4D4D4D" stroke-width="7.02381" stroke-linecap="round" stroke-linejoin="round"/>
<path d="M39.7424 140.729C43.0834 137.412 45.8738 133.792 48.6617 129.999C50.4577 127.555 49.8169 128.268 49.1174 126.185" stroke="#FFD700" stroke-width="7.02381" stroke-linecap="round" stroke-linejoin="round"/>
<path d="M12.7891 93.0238C15.9507 91.9347 20.14 90.4034 22.8802 88.4989C23.2842 88.2181 22.2789 90.9247 21.5781 89.5331" stroke="#FFD700" stroke-width="7.02381" stroke-linecap="round" stroke-linejoin="round"/>
<path d="M4 38.3374C8.03186 41.0334 11.9837 43.5733 17.0208 43.5733C18.1398 43.5733 21.8063 43.4447 20.9922 41.828" stroke="#FFD700" stroke-width="7.02381" stroke-linecap="round" stroke-linejoin="round"/>
<path d="M48.5312 6.92188C49.3827 10.867 50.8876 13.8221 53.1862 17.1029C53.5796 17.6644 56.4068 20.6874 54.9766 18.5573" stroke="#FFD700" stroke-width="7.02381" stroke-linecap="round" stroke-linejoin="round"/>
<path d="M101.266 13.3211C103.834 11.604 106.729 9.75504 108.883 7.50343C109.504 6.85383 111.813 3.77757 111.813 4.0128" stroke="#FFD700" stroke-width="7.02381" stroke-linecap="round" stroke-linejoin="round"/>
<path d="M136.422 41.828C142.293 39.9245 154 36.0103 154 36.0103" stroke="#FFD700" stroke-width="7.02381" stroke-linecap="round" stroke-linejoin="round"/>
<path d="M137.008 89.5333C140.511 92.909 143.85 92.4353 148.141 94.0582C150.035 94.7748 150.749 94.1238 148.141 93.6057" stroke="#FFD700" stroke-width="7.02381" stroke-linecap="round" stroke-linejoin="round"/>
</svg>
