<svg width="38" height="36" viewBox="0 0 38 36" fill="none" xmlns="http://www.w3.org/2000/svg">
<path d="M16.5867 11.455V16.9103V19.0908V24.546H21.1831V19.0908V16.9103V11.455H16.5867Z" fill="#FAB908"/>
<path d="M2.79814 19.0226C4.06737 19.0226 5.09628 18.0152 5.09628 16.7726C5.09628 15.5299 4.06737 14.5226 2.79814 14.5226C1.52891 14.5226 0.5 15.5299 0.5 16.7726C0.5 18.0152 1.52891 19.0226 2.79814 19.0226Z" fill="#0066D9"/>
<path d="M2.79814 21.4774C4.06737 21.4774 5.09628 20.47 5.09628 19.2274C5.09628 17.9847 4.06737 16.9774 2.79814 16.9774C1.52891 16.9774 0.5 17.9847 0.5 19.2274C0.5 20.47 1.52891 21.4774 2.79814 21.4774Z" fill="#0066D9"/>
<path d="M5.09628 16.7729H0.5V19.2275H5.09628V16.7729Z" fill="#0066D9"/>
<path d="M34.9718 21.4774C36.2411 21.4774 37.2699 20.47 37.2699 19.2274C37.2699 17.9847 36.2411 16.9774 34.9718 16.9774C33.7026 16.9774 32.6736 17.9847 32.6736 19.2274C32.6736 20.47 33.7026 21.4774 34.9718 21.4774Z" fill="#4285F4"/>
<path d="M34.9718 19.0226C36.2411 19.0226 37.2699 18.0152 37.2699 16.7726C37.2699 15.5299 36.2411 14.5226 34.9718 14.5226C33.7026 14.5226 32.6736 15.5299 32.6736 16.7726C32.6736 18.0152 33.7026 19.0226 34.9718 19.0226Z" fill="#4285F4"/>
<path d="M32.6736 19.2278H37.2699V16.7732H32.6736V19.2278Z" fill="#4285F4"/>
<path d="M10.7369 26.3867C12.0061 26.3867 13.035 25.3793 13.035 24.1367C13.035 22.894 12.0061 21.8867 10.7369 21.8867C9.46768 21.8867 8.43878 22.894 8.43878 24.1367C8.43878 25.3793 9.46768 26.3867 10.7369 26.3867Z" fill="#EA4335"/>
<path d="M10.7369 28.8414C12.0061 28.8414 13.035 27.8341 13.035 26.5914C13.035 25.3488 12.0061 24.3413 10.7369 24.3413C9.46768 24.3413 8.43878 25.3488 8.43878 26.5914C8.43878 27.8341 9.46768 28.8414 10.7369 28.8414Z" fill="#EA4335"/>
<path d="M13.035 24.137H8.43878V26.5916H13.035V24.137Z" fill="#EA4335"/>
<path d="M10.7369 11.6592C12.0061 11.6592 13.035 10.6518 13.035 9.40919C13.035 8.16655 12.0061 7.15918 10.7369 7.15918C9.46768 7.15918 8.43878 8.16655 8.43878 9.40919C8.43878 10.6518 9.46768 11.6592 10.7369 11.6592Z" fill="#EA4335"/>
<path d="M10.7369 19.6362C12.0061 19.6362 13.035 18.6288 13.035 17.3862C13.035 16.1435 12.0061 15.1362 10.7369 15.1362C9.46768 15.1362 8.43878 16.1435 8.43878 17.3862C8.43878 18.6288 9.46768 19.6362 10.7369 19.6362Z" fill="#EA4335"/>
<path d="M13.035 9.40894H8.43878V17.4374H13.035V9.40894Z" fill="#EA4335"/>
<path d="M27.033 14.114C28.3022 14.114 29.3311 13.1066 29.3311 11.864C29.3311 10.6213 28.3022 9.61395 27.033 9.61395C25.7638 9.61395 24.7349 10.6213 24.7349 11.864C24.7349 13.1066 25.7638 14.114 27.033 14.114Z" fill="#34A853"/>
<path d="M27.033 11.6592C28.3022 11.6592 29.3311 10.6518 29.3311 9.40919C29.3311 8.16655 28.3022 7.15918 27.033 7.15918C25.7638 7.15918 24.7349 8.16655 24.7349 9.40919C24.7349 10.6518 25.7638 11.6592 27.033 11.6592Z" fill="#34A853"/>
<path d="M24.7346 11.8636H29.331V9.40906H24.7346V11.8636Z" fill="#34A853"/>
<path d="M18.8849 6.95479C20.1541 6.95479 21.1831 5.94744 21.1831 4.70478C21.1831 3.46214 20.1541 2.45477 18.8849 2.45477C17.6157 2.45477 16.5867 3.46214 16.5867 4.70478C16.5867 5.94744 17.6157 6.95479 18.8849 6.95479Z" fill="#FAB908"/>
<path d="M18.8849 4.50002C20.1541 4.50002 21.1831 3.49265 21.1831 2.25001C21.1831 1.00737 20.1541 0 18.8849 0C17.6157 0 16.5867 1.00737 16.5867 2.25001C16.5867 3.49265 17.6157 4.50002 18.8849 4.50002Z" fill="#FAB908"/>
<path d="M16.587 4.70457H21.1833V2.25H16.587V4.70457Z" fill="#FAB908"/>
<path d="M18.8849 36C20.1541 36 21.1831 34.9927 21.1831 33.75C21.1831 32.5074 20.1541 31.5 18.8849 31.5C17.6157 31.5 16.5867 32.5074 16.5867 33.75C16.5867 34.9927 17.6157 36 18.8849 36Z" fill="#FAB908"/>
<path d="M18.8849 33.5459C20.1541 33.5459 21.1831 32.5385 21.1831 31.2958C21.1831 30.0532 20.1541 29.0458 18.8849 29.0458C17.6157 29.0458 16.5867 30.0532 16.5867 31.2958C16.5867 32.5385 17.6157 33.5459 18.8849 33.5459Z" fill="#FAB908"/>
<path d="M16.587 33.7503H21.1833V31.2957H16.587V33.7503Z" fill="#FAB908"/>
<path d="M27.033 28.8414C28.3022 28.8414 29.3311 27.8341 29.3311 26.5914C29.3311 25.3488 28.3022 24.3413 27.033 24.3413C25.7638 24.3413 24.7349 25.3488 24.7349 26.5914C24.7349 27.8341 25.7638 28.8414 27.033 28.8414Z" fill="#34A853"/>
<path d="M27.033 20.8638C28.3022 20.8638 29.3311 19.8565 29.3311 18.6138C29.3311 17.3712 28.3022 16.3638 27.033 16.3638C25.7638 16.3638 24.7349 17.3712 24.7349 18.6138C24.7349 19.8565 25.7638 20.8638 27.033 20.8638Z" fill="#34A853"/>
<path d="M24.7346 26.5912H29.331V18.6138H24.7346V26.5912Z" fill="#34A853"/>
<path d="M18.8849 13.7047C20.1541 13.7047 21.1831 12.6973 21.1831 11.4547C21.1831 10.2121 20.1541 9.20465 18.8849 9.20465C17.6157 9.20465 16.5867 10.2121 16.5867 11.4547C16.5867 12.6973 17.6157 13.7047 18.8849 13.7047Z" fill="#FAB908"/>
<path d="M18.8849 26.7959C20.1541 26.7959 21.1831 25.7885 21.1831 24.5458C21.1831 23.3032 20.1541 22.2958 18.8849 22.2958C17.6157 22.2958 16.5867 23.3032 16.5867 24.5458C16.5867 25.7885 17.6157 26.7959 18.8849 26.7959Z" fill="#FAB908"/>
</svg>
