<svg width="35" height="34" viewBox="0 0 35 34" fill="none" xmlns="http://www.w3.org/2000/svg">
<path d="M17.7377 0C14.3283 0 10.9956 0.997021 8.16087 2.86496C5.32623 4.73301 3.11685 7.38807 1.8121 10.4944C0.507451 13.6007 0.166096 17.0189 0.831258 20.3165C1.49632 23.6142 3.13801 26.6433 5.54876 29.0208C7.95951 31.3983 11.031 33.0174 14.3748 33.6733C17.7185 34.3293 21.1844 33.9927 24.3341 32.7059C27.4839 31.4192 30.1761 29.2403 32.0702 26.4447C33.9643 23.6491 34.9752 20.3623 34.9752 17C34.9752 12.4913 33.1591 8.16731 29.9265 4.97922C26.6937 1.79103 22.3094 0 17.7377 0ZM25.6479 24.5164C25.5746 24.6365 25.4777 24.7411 25.3631 24.824C25.2484 24.9069 25.1181 24.9664 24.9798 24.9992C24.8417 25.0321 24.6982 25.0374 24.5578 25.0151C24.4174 24.9928 24.2829 24.9432 24.1622 24.8692C20.1176 22.427 15.0275 21.8843 9.0294 23.2275C8.89292 23.2596 8.75143 23.2647 8.61294 23.2423C8.47455 23.2201 8.34188 23.1709 8.22295 23.0978C8.10391 23.0246 8.00082 22.9288 7.91959 22.8159C7.83837 22.7031 7.78081 22.5755 7.75002 22.4405C7.71723 22.3052 7.71201 22.1647 7.73437 22.0272C7.75684 21.8898 7.80648 21.7581 7.88059 21.6396C7.9547 21.5211 8.05186 21.4183 8.16629 21.3369C8.28081 21.2555 8.41047 21.1971 8.54785 21.1652C15.11 19.6863 20.7504 20.324 25.2903 23.0647C25.5325 23.2107 25.7062 23.4455 25.7732 23.7176C25.8403 23.9897 25.7952 24.277 25.6479 24.5164ZM27.7528 19.8898C27.5606 20.1815 27.262 20.3891 26.919 20.4699C26.5759 20.5508 26.2145 20.4985 25.9093 20.324C20.6786 17.4464 14.5035 16.734 8.74049 18.3431C8.56119 18.4418 8.36173 18.4995 8.15686 18.5122C7.95189 18.5249 7.74671 18.4922 7.55628 18.4164C7.36585 18.3407 7.19507 18.224 7.05638 18.0747C6.91769 17.9254 6.8146 17.7473 6.75473 17.5537C6.69487 17.36 6.67972 17.1556 6.71041 16.9553C6.7411 16.7551 6.81681 16.5643 6.93203 16.3967C7.04725 16.2291 7.19908 16.0891 7.37628 15.9868C7.55357 15.8847 7.75173 15.8228 7.9563 15.8061C11.173 14.8929 14.5423 14.6228 17.8663 15.012C21.1903 15.401 24.402 16.4414 27.3126 18.0719C27.6083 18.2614 27.8188 18.5558 27.9007 18.8941C27.9826 19.2325 27.9297 19.5889 27.7528 19.8898ZM27.9316 15.0734C22.4288 11.8172 13.2253 11.5187 7.91509 13.1061C7.50644 13.2285 7.0652 13.1857 6.68855 12.9872C6.3119 12.7888 6.03061 12.4509 5.90656 12.0478C5.78251 11.6449 5.82584 11.2097 6.0271 10.8382C6.22826 10.4668 6.57092 10.1894 6.97956 10.0671C13.074 8.24901 23.1854 8.60177 29.5825 12.3328C29.9113 12.5649 30.1396 12.9106 30.2218 13.3012C30.3039 13.6916 30.234 14.0984 30.026 14.4404C29.8179 14.7824 29.4869 15.0346 29.0989 15.1469C28.7108 15.2592 28.294 15.2233 27.9316 15.0463V15.0734Z" fill="#1ED760"/>
</svg>
