<svg width="41" height="28" viewBox="0 0 41 28" fill="none" xmlns="http://www.w3.org/2000/svg">
<path fill-rule="evenodd" clip-rule="evenodd" d="M17.6531 0.0521453C17.6531 0.0861802 16.6285 0.103978 14.6823 0.103978C12.0762 0.103978 11.7116 0.113658 11.7116 0.18204C11.7116 0.249798 11.5163 0.260102 10.2648 0.260102C9.01336 0.260102 8.81806 0.270718 8.81806 0.338164C8.81806 0.404672 8.68321 0.416225 7.9141 0.416225C7.14468 0.416225 7.00983 0.428091 7.00983 0.494287C7.00983 0.559547 6.9066 0.572349 6.38983 0.572349C5.86004 0.572349 5.76983 0.584527 5.76983 0.65447C5.76983 0.718481 5.71682 0.734405 5.52431 0.727848C5.07884 0.712548 4.99483 0.725038 4.99483 0.806534C4.99483 0.867423 4.92601 0.884596 4.68483 0.884596C4.44365 0.884596 4.37483 0.902082 4.37483 0.962658C4.37483 1.0173 4.32027 1.04072 4.1941 1.04072C4.06762 1.04072 4.01306 1.06445 4.01306 1.11878C4.01306 1.17093 3.9616 1.19684 3.85806 1.19684C3.75483 1.19684 3.70306 1.22307 3.70306 1.27491C3.70306 1.32705 3.6516 1.35297 3.54806 1.35297C3.44483 1.35297 3.39306 1.3792 3.39306 1.43103C3.39306 1.47412 3.35834 1.50909 3.31556 1.50909C3.27309 1.50909 3.23806 1.54437 3.23806 1.58715C3.23806 1.6393 3.1866 1.66521 3.08306 1.66521C2.97983 1.66521 2.92806 1.69144 2.92806 1.74328C2.92806 1.78637 2.89334 1.82134 2.85056 1.82134C2.80809 1.82134 2.77306 1.85662 2.77306 1.8994C2.77306 1.94249 2.73834 1.97746 2.69556 1.97746C2.65309 1.97746 2.61806 2.01275 2.61806 2.05552C2.61806 2.09861 2.58334 2.13358 2.54056 2.13358C2.49809 2.13358 2.46306 2.16887 2.46306 2.21165C2.46306 2.25474 2.42834 2.28971 2.38556 2.28971C2.34309 2.28971 2.30806 2.32499 2.30806 2.36777C2.30806 2.41086 2.27334 2.44583 2.23056 2.44583C2.1791 2.44583 2.15306 2.49798 2.15306 2.60196C2.15306 2.70625 2.12733 2.75808 2.07556 2.75808C2.03309 2.75808 1.99806 2.79336 1.99806 2.83614C1.99806 2.87923 1.96334 2.9142 1.92056 2.9142C1.8691 2.9142 1.84306 2.96635 1.84306 3.07033C1.84306 3.17462 1.81733 3.22645 1.76556 3.22645C1.7141 3.22645 1.68806 3.2786 1.68806 3.38257C1.68806 3.48686 1.66233 3.5387 1.61056 3.5387C1.55662 3.5387 1.53306 3.59365 1.53306 3.72105C1.53306 3.84813 1.50981 3.90309 1.45556 3.90309C1.39542 3.90309 1.37806 3.97241 1.37806 4.21534C1.37806 4.45827 1.36101 4.52758 1.30056 4.52758C1.2398 4.52758 1.22306 4.59971 1.22306 4.86575C1.22306 5.13178 1.20663 5.20422 1.14556 5.20422C1.08294 5.20422 1.06806 5.28791 1.06806 5.64637C1.06806 6.00483 1.05349 6.08882 0.990563 6.08882C0.926083 6.08882 0.913063 6.1928 0.913063 6.71331C0.913063 7.23383 0.900353 7.33781 0.835563 7.33781C0.769843 7.33781 0.758063 7.47364 0.758063 8.24863C0.758063 9.02332 0.746593 9.15915 0.680563 9.15915C0.616393 9.15915 0.603063 9.26 0.603063 9.75335C0.603063 10.1799 0.585083 10.3551 0.538583 10.3738C0.486813 10.3947 0.486813 10.401 0.538583 10.4041C0.620733 10.4094 0.633753 12.4899 0.551603 12.4899C0.518123 12.4899 0.499833 13.0451 0.499833 14.0511C0.499833 15.0572 0.518123 15.6124 0.551603 15.6124C0.584773 15.6124 0.603063 16.1935 0.603063 17.2517C0.603063 18.6743 0.613293 18.891 0.680563 18.891C0.746593 18.891 0.758063 19.0296 0.758063 19.8277C0.758063 20.6258 0.769533 20.7644 0.835563 20.7644C0.900353 20.7644 0.913063 20.8684 0.913063 21.3889C0.913063 21.9094 0.926083 22.0134 0.990563 22.0134C1.05318 22.0134 1.06806 22.0943 1.06806 22.4297C1.06806 22.765 1.08325 22.8462 1.14556 22.8462C1.20694 22.8462 1.22306 22.9205 1.22306 23.205C1.22306 23.4757 1.24228 23.5709 1.30056 23.5934C1.35543 23.6146 1.37806 23.7005 1.37806 23.8853C1.37806 24.0833 1.39697 24.147 1.45556 24.147C1.50733 24.147 1.53306 24.1992 1.53306 24.3031C1.53306 24.4074 1.5591 24.4593 1.61056 24.4593C1.66233 24.4593 1.68806 24.5114 1.68806 24.6154C1.68806 24.7197 1.7141 24.7715 1.76556 24.7715C1.81733 24.7715 1.84306 24.8237 1.84306 24.9276C1.84306 25.0319 1.8691 25.0838 1.92056 25.0838C1.97233 25.0838 1.99806 25.1359 1.99806 25.2399C1.99806 25.3442 2.0241 25.396 2.07556 25.396C2.11834 25.396 2.15306 25.4313 2.15306 25.4741C2.15306 25.5172 2.18809 25.5521 2.23056 25.5521C2.27334 25.5521 2.30806 25.5874 2.30806 25.6302C2.30806 25.6733 2.34309 25.7082 2.38556 25.7082C2.42834 25.7082 2.46306 25.7435 2.46306 25.7863C2.46306 25.8294 2.49809 25.8644 2.54056 25.8644C2.58334 25.8644 2.61806 25.8997 2.61806 25.9424C2.61806 25.9855 2.65309 26.0205 2.69556 26.0205C2.73834 26.0205 2.77616 26.0558 2.77957 26.0986C2.79197 26.2487 2.79941 26.2725 2.84591 26.3156C2.87319 26.3405 2.87815 26.3327 2.858 26.2975C2.83878 26.2637 2.84684 26.2213 2.87567 26.2032C2.9045 26.1854 2.92806 26.2072 2.92806 26.2516C2.92806 26.2962 2.96309 26.3327 3.00556 26.3327C3.04834 26.3327 3.08306 26.368 3.08306 26.4108C3.08306 26.4629 3.13483 26.4889 3.23806 26.4889C3.3416 26.4889 3.39306 26.5151 3.39306 26.5669C3.39306 26.61 3.42809 26.645 3.47056 26.645C3.51334 26.645 3.54806 26.6803 3.54806 26.7231C3.54806 26.7777 3.60262 26.8011 3.7291 26.8011C3.85527 26.8011 3.90983 26.8248 3.90983 26.8792C3.90983 26.9313 3.9616 26.9572 4.06483 26.9572C4.16558 26.9572 4.21983 26.9838 4.21983 27.0325C4.21983 27.0853 4.29299 27.1124 4.46535 27.1237C4.62779 27.1343 4.70622 27.1614 4.69785 27.2045C4.68855 27.2514 4.77969 27.2695 5.02056 27.2695C5.28468 27.2695 5.3566 27.2863 5.3566 27.3475C5.3566 27.4119 5.44836 27.4256 5.87306 27.4256C6.29807 27.4256 6.38983 27.4397 6.38983 27.5037C6.38983 27.5696 6.5098 27.5817 7.15925 27.5817C7.79568 27.5817 7.93394 27.5955 7.95843 27.6598C7.98385 27.726 8.1652 27.7379 9.15224 27.7379C10.1526 27.7379 10.3166 27.7491 10.3166 27.8159C10.3166 27.884 10.5807 27.894 12.3831 27.894C13.7266 27.894 14.4498 27.9124 14.4498 27.9461C14.4498 27.9805 16.4562 27.9983 20.3656 27.9983C24.275 27.9983 26.2816 27.9805 26.2816 27.9461C26.2816 27.9124 26.9961 27.894 28.3223 27.894C30.102 27.894 30.3631 27.884 30.3631 27.8159C30.3631 27.7491 30.5267 27.7379 31.5256 27.7379C32.5247 27.7379 32.6881 27.7269 32.6881 27.6598C32.6881 27.5939 32.8114 27.5817 33.4891 27.5817C34.1664 27.5817 34.2898 27.5699 34.2898 27.5037C34.2898 27.4397 34.3816 27.4256 34.8066 27.4256C35.2425 27.4256 35.3231 27.4128 35.3231 27.3438C35.3231 27.282 35.3711 27.2639 35.5168 27.2707C35.8941 27.2882 35.9948 27.2717 35.9948 27.1914C35.9948 27.1337 36.055 27.1134 36.2273 27.1134C36.3997 27.1134 36.4598 27.0934 36.4598 27.0353C36.4598 26.9835 36.5116 26.9572 36.6148 26.9572C36.7181 26.9572 36.7698 26.9313 36.7698 26.8792C36.7698 26.8248 36.8244 26.8011 36.9506 26.8011C37.077 26.8011 37.1316 26.7777 37.1316 26.7231C37.1316 26.6712 37.1831 26.645 37.2866 26.645C37.3898 26.645 37.4416 26.6191 37.4416 26.5669C37.4416 26.5241 37.4763 26.4889 37.5191 26.4889C37.5616 26.4889 37.5966 26.4539 37.5966 26.4108C37.5966 26.368 37.6313 26.3327 37.6741 26.3327C37.7166 26.3327 37.7516 26.2978 37.7516 26.2547C37.7516 26.2119 37.7863 26.1766 37.8291 26.1766C37.8716 26.1766 37.9066 26.1416 37.9066 26.0986C37.9066 26.0467 37.9581 26.0205 38.0616 26.0205C38.1992 26.0205 38.2166 26.0033 38.2166 25.8644C38.2166 25.7604 38.2423 25.7082 38.2941 25.7082C38.3366 25.7082 38.3716 25.6733 38.3716 25.6302C38.3716 25.5874 38.4063 25.5521 38.4491 25.5521C38.4916 25.5521 38.5266 25.5172 38.5266 25.4741C38.5266 25.4313 38.5613 25.396 38.6041 25.396C38.6466 25.396 38.6816 25.361 38.6816 25.3179C38.6816 25.2752 38.7163 25.2399 38.7591 25.2399C38.8106 25.2399 38.8366 25.188 38.8366 25.0838C38.8366 24.9798 38.8623 24.9276 38.9141 24.9276C38.9656 24.9276 38.9916 24.8758 38.9916 24.7715C38.9916 24.6675 39.0173 24.6154 39.0691 24.6154C39.123 24.6154 39.1466 24.5604 39.1466 24.4333C39.1466 24.3063 39.1698 24.2513 39.2241 24.2513C39.2827 24.2513 39.3016 24.187 39.3016 23.9856C39.3016 23.7704 39.3165 23.7255 39.3791 23.7495C39.443 23.7742 39.4566 23.7208 39.4566 23.4429C39.4566 23.1784 39.473 23.1063 39.5341 23.1063C39.5961 23.1063 39.6116 23.0282 39.6116 22.716C39.6116 22.4037 39.6271 22.3257 39.6891 22.3257C39.7533 22.3257 39.7666 22.2245 39.7666 21.7271C39.7666 21.23 39.7796 21.1288 39.8441 21.1288C39.9095 21.1288 39.9216 21.0046 39.9216 20.322C39.9216 19.6397 39.9334 19.5154 39.9991 19.5154C40.0657 19.5154 40.0766 19.3418 40.0766 18.2665C40.0766 17.1911 40.0871 17.0175 40.1541 17.0175C40.222 17.0175 40.2316 16.6503 40.2316 14.0252C40.2316 11.3998 40.222 11.0326 40.1541 11.0326C40.0871 11.0326 40.0766 10.8562 40.0766 9.75616C40.0766 8.66923 40.0648 8.47501 39.9991 8.44941C39.9349 8.42474 39.9216 8.28548 39.9216 7.64444C39.9216 6.99028 39.9095 6.86944 39.8441 6.86944C39.7799 6.86944 39.7666 6.77389 39.7666 6.32301C39.7666 5.86057 39.7539 5.77657 39.6851 5.77657C39.6215 5.77657 39.6057 5.72318 39.6122 5.52927C39.6274 5.08057 39.615 4.99595 39.5341 4.99595C39.4721 4.99595 39.4566 4.91789 39.4566 4.60565C39.4566 4.2934 39.4411 4.21534 39.3791 4.21534C39.3248 4.21534 39.3016 4.16038 39.3016 4.0333C39.3016 3.9059 39.278 3.85094 39.2241 3.85094C39.1568 3.85094 39.1091 3.57867 39.1398 3.37165C39.1429 3.35104 39.1088 3.34854 39.0644 3.36571C39.0133 3.38538 38.9876 3.3704 38.9938 3.32481C39.0161 3.16275 38.9873 3.07033 38.9141 3.07033C38.8713 3.07033 38.8366 3.03535 38.8366 2.99226C38.8366 2.94949 38.8016 2.9142 38.7591 2.9142C38.7073 2.9142 38.6816 2.86237 38.6816 2.75808C38.6816 2.6541 38.6556 2.60196 38.6041 2.60196C38.5613 2.60196 38.5266 2.56698 38.5266 2.52389C38.5266 2.48112 38.4916 2.44583 38.4491 2.44583C38.4063 2.44583 38.3716 2.41086 38.3716 2.36777C38.3716 2.32499 38.3366 2.28971 38.2941 2.28971C38.2513 2.28971 38.2166 2.24381 38.2166 2.18729C38.2166 2.11766 38.1918 2.09455 38.1391 2.11485C38.0855 2.13546 38.0616 2.11142 38.0616 2.03679C38.0616 1.96216 38.0374 1.93812 37.9841 1.95873C37.9348 1.97777 37.9066 1.9581 37.9066 1.90502C37.9066 1.85912 37.8716 1.82134 37.8291 1.82134C37.7863 1.82134 37.7516 1.78637 37.7516 1.74328C37.7516 1.7005 37.719 1.66521 37.6794 1.66521C37.64 1.66521 37.5941 1.63024 37.5777 1.58715C37.5616 1.54437 37.4893 1.50909 37.4174 1.50909C37.3356 1.50909 37.2866 1.48005 37.2866 1.43103C37.2866 1.3792 37.2348 1.35297 37.1316 1.35297C37.0281 1.35297 36.9766 1.32705 36.9766 1.27491C36.9766 1.22057 36.922 1.19684 36.7956 1.19684C36.6694 1.19684 36.6148 1.17342 36.6148 1.11878C36.6148 1.06695 36.5631 1.04072 36.4598 1.04072C36.3566 1.04072 36.3048 1.0148 36.3048 0.962658C36.3048 0.903643 36.2416 0.884596 36.0466 0.884596C35.8513 0.884596 35.7881 0.865549 35.7881 0.806534C35.7881 0.744085 35.7106 0.728473 35.4006 0.728473C35.0906 0.728473 35.0131 0.71286 35.0131 0.650411C35.0131 0.585151 34.9064 0.572349 34.3617 0.572349C33.8041 0.572349 33.7148 0.561108 33.7402 0.494287C33.7659 0.426842 33.6456 0.416225 32.8415 0.416225C32.0507 0.416225 31.9131 0.404672 31.9131 0.338164C31.9131 0.270718 31.7209 0.260102 30.4923 0.260102C29.2638 0.260102 29.0716 0.249486 29.0716 0.18204C29.0716 0.113658 28.7011 0.103978 26.0491 0.103978C24.0685 0.103978 23.0266 0.0861802 23.0266 0.0521453C23.0266 0.0181103 22.0966 0 20.3398 0C18.5831 0 17.6531 0.0181103 17.6531 0.0521453ZM16.9717 8.37884C17.2079 8.52185 17.411 8.63894 17.423 8.63894C17.4354 8.63894 17.6803 8.77945 17.9674 8.95119C18.2545 9.12293 18.4975 9.26344 18.5077 9.26344C18.5177 9.26344 18.8785 9.4742 19.3094 9.73181C19.7403 9.98941 20.1008 10.2002 20.1111 10.2002C20.121 10.2002 20.4449 10.3875 20.8306 10.6164C21.2165 10.8453 21.5408 11.0326 21.551 11.0326C21.5615 11.0326 21.8629 11.2084 22.2206 11.4229C22.5783 11.6378 22.8803 11.8132 22.8914 11.8132C22.9026 11.8132 23.2644 12.024 23.6953 12.2816C24.1262 12.5392 24.4867 12.75 24.4966 12.75C24.5062 12.75 24.8088 12.9258 25.169 13.1403C25.5289 13.3551 25.8318 13.5306 25.842 13.5306C25.8522 13.5306 26.0079 13.6177 26.1874 13.7242C26.498 13.9084 26.5888 13.9837 26.5907 14.0583C26.5916 14.0905 26.156 14.3612 25.6356 14.6522C25.4936 14.7318 25.1486 14.9335 24.8686 15.1006C24.589 15.2676 24.3525 15.4041 24.3429 15.4041C24.3329 15.4041 24.0155 15.5871 23.637 15.8106C23.2588 16.0342 22.6118 16.412 22.1998 16.6503C21.7878 16.8885 21.1189 17.2794 20.7134 17.5189C20.3082 17.7584 19.9678 17.9542 19.957 17.9542C19.9464 17.9542 19.5853 18.165 19.1544 18.4226C18.7235 18.6802 18.3608 18.891 18.3487 18.891C18.3366 18.891 18.181 18.9806 18.0027 19.0899C17.8248 19.1991 17.5164 19.3784 17.3173 19.4883C17.1183 19.5979 16.852 19.7528 16.7252 19.8321C16.5984 19.9114 16.4766 19.9651 16.454 19.951C16.4047 19.9204 16.3985 8.20273 16.4475 8.15309C16.5027 8.09782 16.5203 8.10531 16.9717 8.37884Z" fill="#FC0404"/>
</svg>
