<svg width="92" height="36" viewBox="0 0 92 36" fill="none" xmlns="http://www.w3.org/2000/svg">
<circle cx="18" cy="18" r="15.75" fill="url(#paint0_linear_301_2750)"/>
<path d="M20.7527 9.73579C21.0931 9.1416 20.8896 8.38267 20.2981 8.04068C19.7067 7.69869 18.9513 7.90314 18.6109 8.49733L18.0172 9.53372L17.4234 8.49733C17.083 7.90314 16.3276 7.69869 15.7362 8.04068C15.1448 8.38267 14.9413 9.1416 15.2817 9.73579L16.5915 12.0222L12.4484 19.2543H9.11059C8.42819 19.2543 7.875 19.81 7.875 20.4956C7.875 21.1812 8.42819 21.737 9.11059 21.737H20.7365C20.8384 21.4679 20.9457 21.0062 20.8316 20.5818C20.66 19.9439 20.025 19.2543 18.961 19.2543H15.2997L20.7527 9.73579Z" fill="white"/>
<path d="M13.091 23.1097C12.8801 22.8744 12.4078 22.4986 11.9936 22.3749C11.3621 22.1862 10.8834 22.3046 10.6419 22.4077L9.72149 24.0142C9.38108 24.6084 9.58458 25.3673 10.176 25.7093C10.7675 26.0513 11.5229 25.8469 11.8633 25.2527L13.091 23.1097Z" fill="white"/>
<path d="M25.0082 21.737H26.8894C27.5718 21.737 28.125 21.1812 28.125 20.4956C28.125 19.81 27.5718 19.2543 26.8894 19.2543H23.5859L19.8647 12.7587C19.5883 13.0226 19.0583 13.6969 18.9782 14.4613C18.8752 15.444 19.0297 16.2716 19.493 17.0819C21.0508 19.8063 22.611 22.5295 24.1711 25.2527C24.5115 25.8469 25.2669 26.0513 25.8583 25.7093C26.4497 25.3673 26.6532 24.6084 26.3128 24.0142L25.0082 21.737Z" fill="white"/>
<mask id="mask0_301_2750" style="mask-type:alpha" maskUnits="userSpaceOnUse" x="63" y="3" width="28" height="30">
<path d="M89.8044 16.2005C91.2319 16.986 91.2319 19.0141 89.8044 19.7995L66.9758 32.3616C65.5856 33.1266 63.875 32.1339 63.875 30.562L63.875 5.43796C63.875 3.86615 65.5856 2.87342 66.9758 3.63842L89.8044 16.2005Z" fill="#C4C4C4"/>
</mask>
<g mask="url(#mask0_301_2750)">
<path d="M64.5891 32.1147L78.8288 17.7949L64.8236 3.71094C64.2649 4.06912 63.875 4.68752 63.875 5.43789V30.562C63.875 31.2022 64.1588 31.7463 64.5891 32.1147Z" fill="url(#paint1_linear_301_2750)"/>
<path d="M89.8044 16.2003C91.2318 16.9858 91.2318 19.0139 89.8044 19.7994L84.0452 22.9685L78.8289 17.7947L83.7792 12.8848L89.8044 16.2003Z" fill="url(#paint2_linear_301_2750)"/>
<path d="M84.0452 22.9687L78.8289 17.7949L64.5891 32.1148C65.2153 32.651 66.1518 32.8151 66.9758 32.3616L84.0452 22.9687Z" fill="url(#paint3_linear_301_2750)"/>
<path d="M64.8236 3.71098L78.8288 17.7949L83.7792 12.8849L66.9758 3.63842C66.2493 3.23863 65.4353 3.31889 64.8236 3.71098Z" fill="url(#paint4_linear_301_2750)"/>
</g>
<defs>
<linearGradient id="paint0_linear_301_2750" x1="18" y1="2.25" x2="18" y2="33.75" gradientUnits="userSpaceOnUse">
<stop stop-color="#2AC9FA"/>
<stop offset="1" stop-color="#1F65EB"/>
</linearGradient>
<linearGradient id="paint1_linear_301_2750" x1="73.6365" y1="12.233" x2="63.9549" y2="21.9942" gradientUnits="userSpaceOnUse">
<stop stop-color="#00C3FF"/>
<stop offset="1" stop-color="#1BE2FA"/>
</linearGradient>
<linearGradient id="paint2_linear_301_2750" x1="78.8289" y1="17.7947" x2="91.7058" y2="17.7947" gradientUnits="userSpaceOnUse">
<stop stop-color="#FFCE00"/>
<stop offset="1" stop-color="#FFEA00"/>
</linearGradient>
<linearGradient id="paint3_linear_301_2750" x1="64.2904" y1="33.8628" x2="81.4193" y2="20.1302" gradientUnits="userSpaceOnUse">
<stop stop-color="#DE2453"/>
<stop offset="1" stop-color="#FE3944"/>
</linearGradient>
<linearGradient id="paint4_linear_301_2750" x1="65.1211" y1="2.13904" x2="81.4222" y2="15.4535" gradientUnits="userSpaceOnUse">
<stop stop-color="#11D574"/>
<stop offset="1" stop-color="#01F176"/>
</linearGradient>
</defs>
</svg>
