<svg width="55" height="51" viewBox="0 0 55 51" fill="none" xmlns="http://www.w3.org/2000/svg">
<path d="M30.9415 1.98853C32.0225 0.0538826 34.9801 1.05226 34.6674 3.24628L34.0914 7.28834C33.9038 8.60468 35.029 9.7342 36.3461 9.55156L52.0606 7.37228C54.1808 7.07827 55.2187 9.87066 53.4213 11.0328L41.744 18.5831C40.3894 19.459 40.5757 21.4957 42.0668 22.1113L50.0162 25.3932C51.8435 26.1476 51.5851 28.8133 49.6469 29.2027L44.4442 30.248C43.2688 30.4841 42.5639 31.6941 42.938 32.833L44.4143 37.3267C44.9784 39.0438 43.1561 40.5691 41.5651 39.7113L35.2211 36.2911C33.5933 35.4135 31.7486 37.0257 32.4003 38.7564L35.8896 48.0221C36.6466 50.0322 34.1345 51.6595 32.6095 50.1469L22.7461 40.3639C22.1102 39.7331 21.1324 39.6021 20.3529 40.0431L9.23375 46.3337C7.38092 47.382 5.39062 45.1945 6.60868 43.4486L13.1572 34.0624C13.7564 33.2036 13.5917 32.0281 12.7796 31.367L1.36225 22.0728C-0.0973303 20.8846 0.74283 18.5217 2.62488 18.5217H11.4209C12.4152 18.5217 13.2585 17.7913 13.4004 16.8072L14.7794 7.24466C15.0776 5.17632 17.9486 4.89351 18.6447 6.8639L20.879 13.1881C21.4522 14.8108 23.6712 14.9998 24.5107 13.4975L30.9415 1.98853Z" fill="#CD4631"/>
</svg>
