<svg width="22" height="16" viewBox="0 0 22 16" fill="none" xmlns="http://www.w3.org/2000/svg">
<path fill-rule="evenodd" clip-rule="evenodd" d="M3.45835 0.735085C1.97296 0.808675 0.779778 1.97175 0.68338 3.45583C0.591023 4.87769 0.5 6.62724 0.5 8C0.5 9.37276 0.591023 11.1223 0.68338 12.5442C0.779778 14.0283 1.97296 15.1913 3.45835 15.2649C5.60929 15.3715 8.6836 15.5 11 15.5C13.3164 15.5 16.3907 15.3715 18.5417 15.2649C20.027 15.1913 21.2202 14.0283 21.3166 12.5442C21.409 11.1223 21.5 9.37276 21.5 8C21.5 6.62724 21.409 4.8777 21.3166 3.45583C21.2202 1.97175 20.027 0.808675 18.5417 0.735085C16.3907 0.628521 13.3164 0.5 11 0.5C8.6836 0.5 5.60929 0.628521 3.45835 0.735085ZM14.75 8L8.75 11V5L14.75 8Z" fill="white"/>
</svg>
