<svg width="21" height="16" viewBox="0 0 21 16" fill="none" xmlns="http://www.w3.org/2000/svg">
<path fill-rule="evenodd" clip-rule="evenodd" d="M2.95835 0.735085C1.47296 0.808675 0.279778 1.97175 0.18338 3.45583C0.091023 4.87769 0 6.62724 0 8C0 9.37276 0.0910229 11.1223 0.18338 12.5442C0.279778 14.0283 1.47296 15.1913 2.95835 15.2649C5.10929 15.3715 8.1836 15.5 10.5 15.5C12.8164 15.5 15.8907 15.3715 18.0417 15.2649C19.527 15.1913 20.7202 14.0283 20.8166 12.5442C20.909 11.1223 21 9.37276 21 8C21 6.62724 20.909 4.8777 20.8166 3.45583C20.7202 1.97175 19.527 0.808675 18.0417 0.735085C15.8907 0.628521 12.8164 0.5 10.5 0.5C8.1836 0.5 5.10929 0.628521 2.95835 0.735085ZM14.25 8L8.25 11V5L14.25 8Z" fill="black"/>
</svg>
