<svg width="25" height="24" viewBox="0 0 25 24" fill="none" xmlns="http://www.w3.org/2000/svg">
<g clip-path="url(#clip0_301_7730)">
<path d="M11 7.63647V11.2733V12.727V16.3638H14.0001V12.727V11.2733V7.63647H11Z" fill="black"/>
<path d="M2.00002 12.6821C2.82845 12.6821 3.50003 12.0106 3.50003 11.1821C3.50003 10.3537 2.82845 9.68213 2.00002 9.68213C1.17158 9.68213 0.5 10.3537 0.5 11.1821C0.5 12.0106 1.17158 12.6821 2.00002 12.6821Z" fill="black"/>
<path d="M2.00002 14.3179C2.82845 14.3179 3.50003 13.6463 3.50003 12.8179C3.50003 11.9894 2.82845 11.3179 2.00002 11.3179C1.17158 11.3179 0.5 11.9894 0.5 12.8179C0.5 13.6463 1.17158 14.3179 2.00002 14.3179Z" fill="black"/>
<path d="M3.50003 11.1821H0.5V12.8185H3.50003V11.1821Z" fill="black"/>
<path d="M23 14.3179C23.8285 14.3179 24.5 13.6463 24.5 12.8179C24.5 11.9894 23.8285 11.3179 23 11.3179C22.1716 11.3179 21.5 11.9894 21.5 12.8179C21.5 13.6463 22.1716 14.3179 23 14.3179Z" fill="black"/>
<path d="M23 12.6821C23.8285 12.6821 24.5 12.0106 24.5 11.1821C24.5 10.3537 23.8285 9.68213 23 9.68213C22.1716 9.68213 21.5 10.3537 21.5 11.1821C21.5 12.0106 22.1716 12.6821 23 12.6821Z" fill="black"/>
<path d="M21.5 12.8185H24.5V11.1821H21.5V12.8185Z" fill="black"/>
<path d="M7.18165 17.5911C8.01006 17.5911 8.68165 16.9195 8.68165 16.0911C8.68165 15.2626 8.01006 14.5911 7.18165 14.5911C6.35321 14.5911 5.68164 15.2626 5.68164 16.0911C5.68164 16.9195 6.35321 17.5911 7.18165 17.5911Z" fill="black"/>
<path d="M7.18165 19.2276C8.01006 19.2276 8.68165 18.5561 8.68165 17.7276C8.68165 16.8992 8.01006 16.2275 7.18165 16.2275C6.35321 16.2275 5.68164 16.8992 5.68164 17.7276C5.68164 18.5561 6.35321 19.2276 7.18165 19.2276Z" fill="black"/>
<path d="M8.68165 16.0911H5.68164V17.7274H8.68165V16.0911Z" fill="black"/>
<path d="M7.18165 7.77245C8.01006 7.77245 8.68165 7.10088 8.68165 6.27247C8.68165 5.44404 8.01006 4.77246 7.18165 4.77246C6.35321 4.77246 5.68164 5.44404 5.68164 6.27247C5.68164 7.10088 6.35321 7.77245 7.18165 7.77245Z" fill="black"/>
<path d="M7.18165 13.0903C8.01006 13.0903 8.68165 12.4188 8.68165 11.5903C8.68165 10.7619 8.01006 10.0903 7.18165 10.0903C6.35321 10.0903 5.68164 10.7619 5.68164 11.5903C5.68164 12.4188 6.35321 13.0903 7.18165 13.0903Z" fill="black"/>
<path d="M8.68165 6.27246H5.68164V11.6248H8.68165V6.27246Z" fill="black"/>
<path d="M17.8184 9.40968C18.6468 9.40968 19.3184 8.73811 19.3184 7.90968C19.3184 7.08124 18.6468 6.40967 17.8184 6.40967C16.99 6.40967 16.3184 7.08124 16.3184 7.90968C16.3184 8.73811 16.99 9.40968 17.8184 9.40968Z" fill="black"/>
<path d="M17.8184 7.77245C18.6468 7.77245 19.3184 7.10088 19.3184 6.27247C19.3184 5.44404 18.6468 4.77246 17.8184 4.77246C16.99 4.77246 16.3184 5.44404 16.3184 6.27247C16.3184 7.10088 16.99 7.77245 17.8184 7.77245Z" fill="black"/>
<path d="M16.3179 7.90882H19.3179V6.27246H16.3179V7.90882Z" fill="black"/>
<path d="M12.5 4.63649C13.3285 4.63649 14.0001 3.96492 14.0001 3.13648C14.0001 2.30805 13.3285 1.63647 12.5 1.63647C11.6716 1.63647 11 2.30805 11 3.13648C11 3.96492 11.6716 4.63649 12.5 4.63649Z" fill="black"/>
<path d="M12.5 3.00001C13.3285 3.00001 14.0001 2.32844 14.0001 1.50001C14.0001 0.671577 13.3285 0 12.5 0C11.6716 0 11 0.671577 11 1.50001C11 2.32844 11.6716 3.00001 12.5 3.00001Z" fill="black"/>
<path d="M11 3.13638H14.0001V1.5H11V3.13638Z" fill="black"/>
<path d="M12.5 24C13.3285 24 14.0001 23.3284 14.0001 22.5C14.0001 21.6716 13.3285 21 12.5 21C11.6716 21 11 21.6716 11 22.5C11 23.3284 11.6716 24 12.5 24Z" fill="black"/>
<path d="M12.5 22.364C13.3285 22.364 14.0001 21.6925 14.0001 20.864C14.0001 20.0356 13.3285 19.364 12.5 19.364C11.6716 19.364 11 20.0356 11 20.864C11 21.6925 11.6716 22.364 12.5 22.364Z" fill="black"/>
<path d="M11 22.5004H14.0001V20.864H11V22.5004Z" fill="black"/>
<path d="M17.8184 19.2276C18.6468 19.2276 19.3184 18.5561 19.3184 17.7276C19.3184 16.8992 18.6468 16.2275 17.8184 16.2275C16.99 16.2275 16.3184 16.8992 16.3184 17.7276C16.3184 18.5561 16.99 19.2276 17.8184 19.2276Z" fill="black"/>
<path d="M17.8184 13.9097C18.6468 13.9097 19.3184 13.2381 19.3184 12.4097C19.3184 11.5812 18.6468 10.9097 17.8184 10.9097C16.99 10.9097 16.3184 11.5812 16.3184 12.4097C16.3184 13.2381 16.99 13.9097 17.8184 13.9097Z" fill="black"/>
<path d="M16.3179 17.7272H19.3179V12.4089H16.3179V17.7272Z" fill="black"/>
<path d="M12.5 9.13652C13.3285 9.13652 14.0001 8.46488 14.0001 7.63651C14.0001 6.80808 13.3285 6.13647 12.5 6.13647C11.6716 6.13647 11 6.80808 11 7.63651C11 8.46488 11.6716 9.13652 12.5 9.13652Z" fill="black"/>
<path d="M12.5 17.864C13.3285 17.864 14.0001 17.1925 14.0001 16.364C14.0001 15.5356 13.3285 14.864 12.5 14.864C11.6716 14.864 11 15.5356 11 16.364C11 17.1925 11.6716 17.864 12.5 17.864Z" fill="black"/>
</g>
<defs>
<clipPath id="clip0_301_7730">
<rect width="24" height="24" fill="white" transform="translate(0.5)"/>
</clipPath>
</defs>
</svg>
