<svg width="119" height="23" viewBox="0 0 119 23" fill="none" xmlns="http://www.w3.org/2000/svg">
<path fill-rule="evenodd" clip-rule="evenodd" d="M2.93453 22.4696H0.0354004V0.598877H7.72533C9.63677 0.598877 11.291 1.21488 12.6881 2.44682C14.0851 3.67886 14.7837 5.23156 14.7837 7.10506C14.7837 8.97856 14.0851 10.5313 12.6881 11.7633C11.291 12.9953 9.63677 13.6114 7.72533 13.6114H2.93453V22.4696ZM2.93453 10.9233H7.78772C9.00673 10.9233 9.98376 10.5262 10.7188 9.73207C11.4539 8.93779 11.8221 8.06212 11.8221 7.10506C11.8221 6.148 11.4539 5.27233 10.7188 4.4782C9.98376 3.68392 9.00673 3.28693 7.78772 3.28693H2.93453V10.9233ZM17.1882 9.30443C18.6796 7.77703 20.5804 7.0134 22.8921 7.0134C25.2038 7.0134 27.1046 7.77197 28.596 9.2891C30.0874 10.8062 30.8331 12.705 30.8331 14.9858C30.8331 17.2666 30.0874 19.1655 28.596 20.6826C27.1046 22.1998 25.2038 22.9582 22.8921 22.9582C20.5804 22.9582 18.6796 22.1998 17.1882 20.6826C15.6968 19.1655 14.9511 17.2666 14.9511 14.9858C14.9511 12.705 15.6968 10.8113 17.1882 9.30443ZM19.331 18.9262C20.34 19.9037 21.527 20.3925 22.8921 20.3925C24.2572 20.3925 25.4397 19.8986 26.438 18.9109C27.4348 17.9234 27.934 16.615 27.934 14.9858C27.934 13.3568 27.4348 12.0484 26.438 11.0607C25.4397 10.0731 24.2572 9.57926 22.8921 9.57926C21.527 9.57926 20.3445 10.0731 19.3462 11.0607C18.3494 12.0484 17.8502 13.3568 17.8502 14.9858C17.8502 16.615 18.3433 17.9284 19.331 18.9262ZM39.5716 22.9582C37.5765 22.9582 35.8537 22.1946 34.4034 20.6673C32.9546 19.1401 32.2287 17.2462 32.2287 14.9858C32.2287 12.7254 32.9546 10.8317 34.4034 9.30443C35.8537 7.77703 37.5765 7.0134 39.5716 7.0134C40.748 7.0134 41.8042 7.25788 42.7386 7.74653C43.6745 8.23532 44.3731 8.84614 44.8342 9.57926H44.9605L44.8342 7.5022V0.598877H47.7348V22.4696H44.9605V20.3925H44.8342C44.3731 21.1255 43.6745 21.7364 42.7386 22.2252C41.8042 22.7139 40.748 22.9582 39.5716 22.9582ZM40.0449 20.3925C41.41 20.3925 42.5712 19.9037 43.5269 18.9262C44.4826 17.9488 44.9605 16.6354 44.9605 14.9858C44.9605 13.3364 44.4826 12.023 43.5269 11.0455C42.5712 10.0681 41.41 9.57926 40.0449 9.57926C38.6996 9.57926 37.5445 10.0731 36.5781 11.0607C35.6118 12.0484 35.1278 13.3568 35.1278 14.9858C35.1278 16.615 35.6118 17.9234 36.5781 18.9109C37.5445 19.8986 38.6996 20.3925 40.0449 20.3925ZM57.7958 22.9582C55.4856 22.9582 53.5833 22.1998 52.0919 20.6826C50.6005 19.1655 49.8548 17.2666 49.8548 14.9858C49.8548 12.705 50.6005 10.8062 52.0919 9.2891C53.5833 7.77197 55.4856 7.0134 57.7958 7.0134C59.5186 7.0134 60.9476 7.42066 62.0813 8.23532C63.2166 9.04984 64.0461 10.0782 64.5711 11.3203L61.9246 12.3894C61.1256 10.5159 59.6875 9.57926 57.6071 9.57926C56.3257 9.57926 55.1965 10.0884 54.2195 11.1065C53.2424 12.1247 52.7539 13.4178 52.7539 14.9858C52.7539 16.5538 53.2424 17.847 54.2195 18.8651C55.1965 19.8833 56.3257 20.3925 57.6071 20.3925C59.7712 20.3925 61.2626 19.4557 62.0813 17.5823L64.6655 18.6513C64.1404 19.8732 63.2958 20.8965 62.1285 21.7211C60.9628 22.5459 59.5186 22.9582 57.7958 22.9582ZM71.5442 22.9582C69.9067 22.9582 68.5355 22.5001 67.4322 21.5838C66.3288 20.6673 65.7779 19.4557 65.7779 17.9488C65.7779 16.3196 66.4293 15.0419 67.732 14.1153C69.0347 13.1888 70.6418 12.7254 72.5532 12.7254C74.2546 12.7254 75.6517 13.0309 76.7444 13.6419V13.2142C76.7444 12.1146 76.3563 11.2339 75.5787 10.572C74.801 9.91018 73.8453 9.57926 72.7115 9.57926C71.8699 9.57926 71.109 9.7727 70.4257 10.1597C69.7439 10.5466 69.2767 11.076 69.024 11.748L66.376 10.6484C66.7336 9.75231 67.4383 8.92262 68.4883 8.15899C69.5384 7.39522 70.9248 7.0134 72.6476 7.0134C74.6229 7.0134 76.262 7.57347 77.5647 8.69347C78.8674 9.81347 79.5187 11.3916 79.5187 13.428V22.4696H76.7444V20.3925H76.6181C75.463 22.1031 73.7722 22.9582 71.5442 22.9582ZM72.0175 20.3925C73.2152 20.3925 74.3018 19.9596 75.2789 19.0942C76.2559 18.2288 76.7444 17.2056 76.7444 16.0244C75.9256 15.3728 74.696 15.047 73.057 15.047C71.6492 15.047 70.5885 15.3422 69.8748 15.9327C69.161 16.5233 68.8034 17.2157 68.8034 18.0098C68.8034 18.7429 69.1291 19.3234 69.7804 19.751C70.4318 20.1787 71.1775 20.3925 72.0175 20.3925ZM88.0046 22.9582C86.2818 22.9582 84.8574 22.5509 83.7343 21.7364C82.6096 20.9219 81.7848 19.9037 81.2597 18.6819L83.8438 17.6433C84.6641 19.5168 86.0612 20.4535 88.035 20.4535C88.939 20.4535 89.6801 20.2601 90.2569 19.8732C90.8352 19.4863 91.1244 18.9771 91.1244 18.3459C91.1244 17.3683 90.4198 16.7066 89.0121 16.3604L85.8923 15.6273C84.9046 15.3829 83.9701 14.9197 83.0875 14.2375C82.2063 13.5553 81.765 12.6339 81.765 11.4731C81.765 10.1494 82.3676 9.07528 83.576 8.2505C84.7843 7.42587 86.2179 7.0134 87.8783 7.0134C89.2434 7.0134 90.4624 7.31382 91.5338 7.91452C92.6051 8.51536 93.3722 9.37571 93.8348 10.4957L91.3131 11.5037C90.7454 10.18 89.569 9.51825 87.7839 9.51825C86.9225 9.51825 86.1966 9.6913 85.6092 10.0374C85.0202 10.3837 84.7265 10.8521 84.7265 11.4425C84.7265 12.2978 85.4098 12.8782 86.7749 13.1837L89.8323 13.8862C91.2811 14.2121 92.3525 14.772 93.0465 15.5663C93.7405 16.3604 94.0859 17.2564 94.0859 18.2543C94.0859 19.5982 93.5198 20.7182 92.3845 21.6143C91.2507 22.5103 89.7897 22.9582 88.0046 22.9582ZM102.762 22.7139C101.144 22.7139 99.91 22.2965 99.0593 21.4616C98.2071 20.6266 97.7825 19.4456 97.7825 17.9183V10.0681H95.0721V7.5022H97.7825V2.92029H100.682V7.5022H104.463V10.0681H100.682V17.7045C100.682 19.3335 101.376 20.148 102.762 20.148C103.287 20.148 103.728 20.0666 104.084 19.9037L105.093 22.3167C104.463 22.5816 103.686 22.7139 102.762 22.7139ZM112.917 22.9582C111.195 22.9582 109.772 22.5509 108.649 21.7364C107.524 20.9219 106.699 19.9037 106.174 18.6819L108.758 17.6433C109.577 19.5168 110.974 20.4535 112.949 20.4535C113.853 20.4535 114.593 20.2601 115.171 19.8732C115.749 19.4863 116.037 18.9771 116.037 18.3459C116.037 17.3683 115.334 16.7066 113.926 16.3604L110.807 15.6273C109.819 15.3829 108.884 14.9197 108.002 14.2375C107.119 13.5553 106.678 12.6339 106.678 11.4731C106.678 10.1494 107.282 9.07528 108.49 8.2505C109.699 7.42587 111.132 7.0134 112.793 7.0134C114.158 7.0134 115.377 7.31382 116.448 7.91452C117.519 8.51536 118.286 9.37571 118.748 10.4957L116.227 11.5037C115.66 10.18 114.483 9.51825 112.697 9.51825C111.835 9.51825 111.111 9.6913 110.523 10.0374C109.934 10.3837 109.641 10.8521 109.641 11.4425C109.641 12.2978 110.323 12.8782 111.689 13.1837L114.745 13.8862C116.195 14.2121 117.267 14.772 117.961 15.5663C118.653 16.3604 119 17.2564 119 18.2543C119 19.5982 118.433 20.7182 117.299 21.6143C116.163 22.5103 114.704 22.9582 112.917 22.9582Z" fill="#14142B"/>
</svg>
