<svg width="103" height="34" viewBox="0 0 103 34" fill="none" xmlns="http://www.w3.org/2000/svg">
<path d="M0.930786 13.421C0.930786 6.50059 6.91364 0.892578 14.0534 0.892578C17.9927 0.892578 20.7995 2.39599 22.9168 4.35282L20.4055 6.76307C18.9037 5.37896 16.8602 4.30511 14.0534 4.30511C8.85857 4.30511 4.79629 8.36189 4.79629 13.3972C4.79629 18.4325 8.85857 22.4893 14.0534 22.4893C17.4265 22.4893 19.3469 21.1767 20.5779 19.9835C21.5874 19.0052 22.2521 17.5973 22.4982 15.6881H14.0534V12.2756H25.945C26.0681 12.896 26.1421 13.6119 26.1421 14.4233C26.1421 17.0006 25.4281 20.1744 23.0891 22.4177C20.7995 24.7086 17.8943 25.9256 14.0534 25.9256C6.91364 25.9256 0.930786 20.3177 0.930786 13.421ZM35.6208 9.96087C40.2249 9.96087 43.9671 13.3494 43.9671 18.0267C43.9671 22.6802 40.2249 26.0927 35.6208 26.0927C31.0169 26.0927 27.2745 22.6802 27.2745 18.0267C27.2745 13.3494 31.0169 9.96087 35.6208 9.96087ZM35.6208 22.8949C38.1322 22.8949 40.3233 20.8905 40.3233 18.0029C40.3233 15.0915 38.1322 13.1109 35.6208 13.1109C33.085 13.1109 30.9184 15.0915 30.9184 18.0029C30.9184 20.8905 33.1096 22.8949 35.6208 22.8949ZM53.84 9.96087C58.4439 9.96087 62.1863 13.3494 62.1863 18.0267C62.1863 22.6802 58.4439 26.0927 53.84 26.0927C49.2359 26.0927 45.4937 22.6802 45.4937 18.0267C45.4937 13.3494 49.2359 9.96087 53.84 9.96087ZM53.84 22.8949C56.3512 22.8949 58.5424 20.8905 58.5424 18.0029C58.5424 15.0915 56.3759 13.1109 53.84 13.1109C51.304 13.1109 49.1375 15.0915 49.1375 18.0029C49.1375 20.8905 51.3286 22.8949 53.84 22.8949ZM76.1952 10.2233H79.6914V24.7086C79.6914 30.6746 76.0721 33.1086 71.7881 33.1086C67.7505 33.1086 65.3129 30.4837 64.4021 28.336L67.5781 27.0472C68.1443 28.3598 69.5231 29.911 71.7635 29.911C74.4964 29.911 76.1952 28.2644 76.1952 25.1859V24.0165H76.0721C75.2596 24.995 73.6839 25.854 71.6896 25.854C67.5289 25.854 63.7127 22.3222 63.7127 17.812C63.7127 13.254 67.5289 9.7222 71.6896 9.7222C73.6839 9.7222 75.2596 10.5812 76.0721 11.5359H76.1952V10.2233ZM72.0097 22.6802C74.4964 22.6802 76.466 20.6518 76.4413 17.812C76.4413 14.9722 74.4964 12.896 72.0097 12.896C69.4985 12.896 67.3811 14.9722 67.3811 17.812C67.3811 20.628 69.4985 22.6802 72.0097 22.6802ZM82.1781 25.5438V1.84713H85.8214V25.5438H82.1781ZM95.8428 22.8949C97.7132 22.8949 98.9931 22.0119 99.9533 20.6756L102.786 22.5131C101.85 23.8256 99.6581 26.0927 95.8428 26.0927C91.1144 26.0927 87.5944 22.537 87.5944 18.0267C87.5944 13.2301 91.1646 9.96087 95.4487 9.96087C99.757 9.96087 101.874 13.2779 102.563 15.0915L102.933 15.9983L91.8038 20.4609C92.6667 22.0597 93.9709 22.8949 95.8428 22.8949ZM95.5719 13.0631C93.7001 13.0631 91.1144 14.662 91.2133 17.7642L98.6491 14.7813C98.255 13.7552 97.0238 13.0631 95.5719 13.0631Z" fill="#14142B"/>
</svg>
