<svg width="80" height="20" viewBox="0 0 80 20" fill="none" xmlns="http://www.w3.org/2000/svg">
<path d="M5.28185 12.3705C5.37952 11.5618 5.71119 11.1091 6.3362 10.6449C7.23049 10.0163 8.34758 10.3719 8.34758 10.3719V8.26241C8.61916 8.25546 8.89084 8.27156 9.15946 8.31051V11.0252C9.15946 11.0252 8.04271 10.6696 7.14842 11.2986C6.52374 11.7624 6.19139 12.2155 6.09406 13.0242C6.09101 13.4633 6.17342 14.0373 6.55291 14.5336C6.45908 14.4855 6.36345 14.4307 6.266 14.3692C5.43005 13.8078 5.27778 12.9657 5.28185 12.3705ZM13.772 4.36199C13.1568 3.68786 12.9241 3.00724 12.84 2.52911H13.6139C13.6139 2.52911 13.4596 3.78277 14.5842 5.01563L14.5998 5.03221C14.2967 4.84156 14.0188 4.61652 13.772 4.36199ZM17.5 6.27319V8.93328C17.5 8.93328 16.5125 8.8946 15.7817 8.70868C14.7612 8.44865 14.1053 8.04983 14.1053 8.04983C14.1053 8.04983 13.6523 7.76543 13.6156 7.7456V13.2387C13.6156 13.5445 13.5319 14.3084 13.2765 14.9454C12.9431 15.7788 12.4287 16.3259 12.3341 16.4377C12.3341 16.4377 11.7084 17.1771 10.6045 17.6751C9.60949 18.1243 8.73589 18.1129 8.47476 18.1243C8.47476 18.1243 6.96461 18.1841 5.60572 17.301C5.31186 17.1063 5.03757 16.8859 4.78638 16.6425L4.79316 16.6473C6.15239 17.5305 7.6622 17.4706 7.6622 17.4706C7.92367 17.4593 8.79727 17.4706 9.79194 17.0214C10.8948 16.5235 11.5215 15.784 11.5215 15.784C11.6151 15.6722 12.1319 15.1252 12.4639 14.2915C12.7186 13.6547 12.8031 12.8906 12.8031 12.5847V7.09228C12.8397 7.11243 13.2924 7.39684 13.2924 7.39684C13.2924 7.39684 13.9487 7.79598 14.9691 8.05568C15.7003 8.2416 16.6875 8.28028 16.6875 8.28028V6.19583C17.0252 6.27157 17.3132 6.29204 17.5 6.27319Z" fill="#EE1D52"/>
<path d="M16.6878 6.19583V8.27963C16.6878 8.27963 15.7006 8.24095 14.9694 8.05503C13.949 7.79501 13.2928 7.39619 13.2928 7.39619C13.2928 7.39619 12.84 7.11178 12.8034 7.09163V12.5854C12.8034 12.8912 12.7196 13.6554 12.4643 14.2921C12.1309 15.1258 11.6164 15.6729 11.5218 15.7847C11.5218 15.7847 10.8958 16.5241 9.79226 17.0221C8.79759 17.4713 7.92399 17.4599 7.66252 17.4713C7.66252 17.4713 6.15271 17.5311 4.79348 16.648L4.78669 16.6431C4.64319 16.5042 4.50811 16.3574 4.38211 16.2037C3.94836 15.6748 3.68249 15.0495 3.61568 14.871C3.61556 14.8703 3.61556 14.8695 3.61568 14.8687C3.50817 14.5587 3.28231 13.814 3.31317 13.0928C3.36777 11.8202 3.81542 11.0392 3.93378 10.8435C4.24724 10.3099 4.65493 9.83251 5.13871 9.43253C5.56562 9.08738 6.0495 8.81277 6.57052 8.61994C7.13376 8.39354 7.73688 8.2722 8.34756 8.26241V10.3719C8.34756 10.3719 7.23047 10.0176 6.33652 10.6449C5.7115 11.1091 5.37983 11.5618 5.28216 12.3705C5.27809 12.9657 5.43036 13.8078 6.26564 14.3695C6.36308 14.4312 6.45872 14.4861 6.55254 14.534C6.69847 14.7236 6.87608 14.8889 7.0782 15.0231C7.89414 15.5396 8.57783 15.5757 9.45211 15.2403C10.0351 15.016 10.4739 14.5106 10.6774 13.9505C10.8052 13.6008 10.8035 13.2488 10.8035 12.8847V2.52911H12.8383C12.9224 3.00724 13.1551 3.68786 13.7703 4.36199C14.017 4.61652 14.295 4.84156 14.5981 5.03221C14.6876 5.12484 15.1454 5.58282 15.7331 5.86397C16.037 6.0093 16.3574 6.12065 16.6878 6.19583Z" fill="black"/>
<path d="M2.80591 14.2231V14.2248L2.8564 14.3616C2.8506 14.3457 2.83184 14.2973 2.80591 14.2231Z" fill="#69C9D0"/>
<path d="M6.57051 8.61984C6.0495 8.81266 5.56561 9.08728 5.1387 9.43243C4.65477 9.83331 4.24718 10.3117 3.93411 10.8463C3.81576 11.0414 3.3681 11.8231 3.3135 13.0956C3.28264 13.8168 3.5085 14.5615 3.61601 14.8716C3.61589 14.8723 3.61589 14.8731 3.61601 14.8738C3.68383 15.0507 3.94869 15.676 4.38244 16.2065C4.50844 16.3602 4.64352 16.507 4.78702 16.6459C4.32723 16.3411 3.91716 15.9727 3.57023 15.5525C3.14021 15.0282 2.87501 14.4094 2.80583 14.2267C2.80574 14.2254 2.80574 14.2241 2.80583 14.2228V14.2205C2.69798 13.9108 2.47144 13.1658 2.50298 12.4436C2.55758 11.171 3.00523 10.39 3.12359 10.1943C3.43657 9.65964 3.84417 9.18122 4.32818 8.78041C4.755 8.43514 5.23891 8.16051 5.75999 7.96782C6.08501 7.83857 6.42361 7.74322 6.76992 7.68341C7.29183 7.5961 7.82487 7.58853 8.34925 7.66099V8.2623C7.738 8.27189 7.13427 8.39324 6.57051 8.61984Z" fill="#69C9D0"/>
<path d="M12.8399 2.52897H10.8051V12.8849C10.8051 13.2489 10.8051 13.6 10.6789 13.9507C10.4734 14.5104 10.0363 15.0158 9.45365 15.2401C8.57904 15.5768 7.89535 15.5395 7.07974 15.023C6.87727 14.8894 6.69921 14.7246 6.55273 14.5354C7.24761 14.8907 7.86958 14.8845 8.64008 14.5881C9.22237 14.3638 9.66018 13.8584 9.86502 13.2984C9.99321 12.9486 9.99151 12.5966 9.99151 12.2329V1.875H12.8012C12.8012 1.875 12.7697 2.13243 12.8399 2.52897ZM16.6876 5.6194V6.19569C16.3578 6.12039 16.038 6.00904 15.7347 5.86383C15.147 5.58267 14.6891 5.1247 14.5996 5.03206C14.7035 5.09744 14.8113 5.15691 14.9225 5.21018C15.637 5.55212 16.3407 5.65418 16.6876 5.6194Z" fill="#69C9D0"/>
<path d="M37.368 17.5C35.3461 17.5 33.4614 16.9119 31.875 15.8973C33.2219 15.9844 35.5988 15.7757 37.0772 14.3655C34.8532 14.2634 33.8502 12.5577 33.7193 11.8287C33.9083 11.9016 34.8096 11.9891 35.3183 11.785C32.7599 11.1435 32.3675 8.89833 32.4547 8.21311C32.9344 8.54843 33.7484 8.66506 34.0682 8.6359C31.6842 6.93015 32.5419 4.36422 32.9634 3.81022C34.6743 6.18042 37.2383 7.51161 40.4102 7.58565C40.3504 7.32335 40.3188 7.05026 40.3188 6.76978C40.3188 4.75682 41.9459 3.125 43.9529 3.125C45.0016 3.125 45.9465 3.57047 46.6098 4.28302C47.3106 4.11882 48.3652 3.73442 48.8808 3.402C48.6209 4.33507 47.8118 5.11343 47.3224 5.40192C47.3185 5.39207 47.3265 5.41174 47.3224 5.40192C47.7523 5.3369 48.9155 5.11336 49.375 4.8016C49.1478 5.32578 48.29 6.19733 47.5861 6.68526C47.717 12.4613 43.2978 17.5 37.368 17.5Z" fill="#47ACDF"/>
<rect x="61.25" y="1.25" width="17.5" height="17.5" rx="8.75" fill="url(#paint0_radial_301_7798)"/>
<rect x="61.25" y="1.25" width="17.5" height="17.5" rx="8.75" fill="url(#paint1_radial_301_7798)"/>
<rect x="61.25" y="1.25" width="17.5" height="17.5" rx="8.75" fill="url(#paint2_radial_301_7798)"/>
<path d="M73.5 7.25C73.5 7.66421 73.1642 8 72.75 8C72.3358 8 72 7.66421 72 7.25C72 6.83579 72.3358 6.5 72.75 6.5C73.1642 6.5 73.5 6.83579 73.5 7.25Z" fill="white"/>
<path fill-rule="evenodd" clip-rule="evenodd" d="M70 12.5C71.3807 12.5 72.5 11.3807 72.5 10C72.5 8.61929 71.3807 7.5 70 7.5C68.6193 7.5 67.5 8.61929 67.5 10C67.5 11.3807 68.6193 12.5 70 12.5ZM70 11.5C70.8284 11.5 71.5 10.8284 71.5 10C71.5 9.17157 70.8284 8.5 70 8.5C69.1716 8.5 68.5 9.17157 68.5 10C68.5 10.8284 69.1716 11.5 70 11.5Z" fill="white"/>
<path fill-rule="evenodd" clip-rule="evenodd" d="M65 9.8C65 8.11984 65 7.27976 65.327 6.63803C65.6146 6.07354 66.0735 5.6146 66.638 5.32698C67.2798 5 68.1198 5 69.8 5H70.2C71.8802 5 72.7202 5 73.362 5.32698C73.9265 5.6146 74.3854 6.07354 74.673 6.63803C75 7.27976 75 8.11984 75 9.8V10.2C75 11.8802 75 12.7202 74.673 13.362C74.3854 13.9265 73.9265 14.3854 73.362 14.673C72.7202 15 71.8802 15 70.2 15H69.8C68.1198 15 67.2798 15 66.638 14.673C66.0735 14.3854 65.6146 13.9265 65.327 13.362C65 12.7202 65 11.8802 65 10.2V9.8ZM69.8 6H70.2C71.0566 6 71.6389 6.00078 72.089 6.03755C72.5274 6.07337 72.7516 6.1383 72.908 6.21799C73.2843 6.40973 73.5903 6.71569 73.782 7.09202C73.8617 7.24842 73.9266 7.47262 73.9624 7.91104C73.9992 8.36113 74 8.94342 74 9.8V10.2C74 11.0566 73.9992 11.6389 73.9624 12.089C73.9266 12.5274 73.8617 12.7516 73.782 12.908C73.5903 13.2843 73.2843 13.5903 72.908 13.782C72.7516 13.8617 72.5274 13.9266 72.089 13.9624C71.6389 13.9992 71.0566 14 70.2 14H69.8C68.9434 14 68.3611 13.9992 67.911 13.9624C67.4726 13.9266 67.2484 13.8617 67.092 13.782C66.7157 13.5903 66.4097 13.2843 66.218 12.908C66.1383 12.7516 66.0734 12.5274 66.0376 12.089C66.0008 11.6389 66 11.0566 66 10.2V9.8C66 8.94342 66.0008 8.36113 66.0376 7.91104C66.0734 7.47262 66.1383 7.24842 66.218 7.09202C66.4097 6.71569 66.7157 6.40973 67.092 6.21799C67.2484 6.1383 67.4726 6.07337 67.911 6.03755C68.3611 6.00078 68.9434 6 69.8 6Z" fill="white"/>
<defs>
<radialGradient id="paint0_radial_301_7798" cx="0" cy="0" r="1" gradientUnits="userSpaceOnUse" gradientTransform="translate(67.5 14.375) rotate(-55.3758) scale(15.9498)">
<stop stop-color="#B13589"/>
<stop offset="0.79309" stop-color="#C62F94"/>
<stop offset="1" stop-color="#8A3AC8"/>
</radialGradient>
<radialGradient id="paint1_radial_301_7798" cx="0" cy="0" r="1" gradientUnits="userSpaceOnUse" gradientTransform="translate(66.875 19.375) rotate(-65.1363) scale(14.1214)">
<stop stop-color="#E0E8B7"/>
<stop offset="0.444662" stop-color="#FB8A2E"/>
<stop offset="0.71474" stop-color="#E2425C"/>
<stop offset="1" stop-color="#E2425C" stop-opacity="0"/>
</radialGradient>
<radialGradient id="paint2_radial_301_7798" cx="0" cy="0" r="1" gradientUnits="userSpaceOnUse" gradientTransform="translate(60.3125 1.875) rotate(-8.1301) scale(24.3068 5.19897)">
<stop offset="0.156701" stop-color="#406ADC"/>
<stop offset="0.467799" stop-color="#6A45BE"/>
<stop offset="1" stop-color="#6A45BE" stop-opacity="0"/>
</radialGradient>
</defs>
</svg>
