<svg width="78" height="78" viewBox="0 0 78 78" fill="none" xmlns="http://www.w3.org/2000/svg">
<path d="M69.6582 24.7408C70.078 25.2013 70.1322 25.8783 69.8072 26.42C69.5092 26.921 69.2519 27.3544 68.954 27.7606C65.8665 32.0398 64.1738 34.2742 61.1269 38.5804C60.3551 39.6637 58.4863 42.9815 57.7686 44.119C57.7551 44.1325 57.7551 44.146 57.7415 44.1596C57.0915 45.1346 55.4936 45.0669 54.979 43.9971C54.979 43.9971 54.979 43.9835 54.9655 43.9835C54.2072 42.3179 53.5978 40.5981 52.8936 38.9054C50.9572 34.2335 48.2624 30.1846 43.7801 27.5304C42.1551 26.569 42.128 25.8648 43.3874 24.47C43.8613 23.9554 44.3353 23.4273 44.8499 22.9669C49.8197 18.5387 53.2457 13.0679 55.8051 6.97417C55.9676 6.595 56.2926 6.29708 56.6447 5.99917C57.1051 5.62 57.7686 5.67417 58.1749 6.1075C58.5134 6.45958 58.8249 6.83875 59.0145 7.25854C59.4342 8.23354 59.5426 9.33042 59.7999 10.3731C61.1811 16.0471 64.2551 20.57 68.9269 24.0502C69.1842 24.2398 69.4144 24.4835 69.6582 24.7408ZM57.2134 11.145C55.6019 13.8262 54.2478 16.5887 52.4061 18.9992C50.5238 21.4502 48.1676 23.5356 46.0144 25.7971C51.4853 29.0742 54.654 34.2606 56.5634 40.6252C59.3665 34.8294 63.2394 30.2252 67.4915 25.919C60.7749 20.8002 59.1769 18.4846 57.2134 11.145Z" fill="black"/>
<path d="M18.5926 71.4733C17.3603 67.9796 16.2905 64.4181 14.9364 60.9785C13.6093 57.6473 11.6322 54.6817 8.78846 52.3931C7.74575 51.5535 7.77283 50.7952 8.62596 49.8473C13.4197 44.6337 17.103 38.7296 19.7437 32.1619C20.028 31.4577 20.7864 30.3337 21.3145 30.3337C22.7499 29.9952 23.2645 32.7983 23.3187 33.0556C24.5239 39.664 28.6135 44.4712 33.2041 48.9671C34.6937 50.4296 34.8155 50.8765 33.353 52.2848C27.8416 57.566 24.1853 64.066 21.0437 70.9046C20.0551 73.2879 18.7416 71.8931 18.5926 71.4733ZM10.4405 50.7817C13.3655 52.6369 15.302 55.115 16.7103 57.9181C18.078 60.6671 19.0801 63.5785 20.2176 66.3681C22.8447 60.491 26.3926 55.0608 31.7822 50.9306C26.5687 46.8275 22.452 42.1421 21.1926 35.4254C18.9312 41.465 15.3426 46.489 10.4405 50.7817Z" fill="#81ADC8"/>
<path d="M55.6021 56.9024C52.6094 60.9243 50.7812 65.5149 49.1021 70.1868C48.9937 70.4847 48.6417 72.1774 47.3552 72.1639C46.9896 72.1639 46.3802 71.5816 46.15 71.1212C45.1344 69.0493 44.4979 66.7337 43.2114 64.8649C41.6948 62.6441 39.6094 60.8159 37.8489 58.7712C37.5916 58.4732 37.4969 57.7962 37.6594 57.4305C37.9708 56.7534 38.526 56.2118 38.9594 55.5889C41.1666 52.3389 43.3333 49.0618 45.6083 45.8659C46.0823 45.2024 47.0167 44.4034 47.5719 44.4034C48.9531 44.3899 49.2239 45.4732 49.4677 46.2451C50.5781 49.793 52.4875 52.7587 55.2635 55.2097C56.2521 56.1305 55.7239 56.7399 55.6021 56.9024ZM40.3948 57.8368C43.6177 60.1253 45.8114 63.4295 47.1385 67.1264C49.1021 63.5243 51.1062 59.8545 53.1646 56.0628C50.4021 54.1534 48.4792 50.592 47.5989 47.9649C45.1885 51.2691 42.8052 54.5326 40.3948 57.8368Z" fill="#CD4631"/>
</svg>
