<svg width="130" height="130" viewBox="0 0 130 130" fill="none" xmlns="http://www.w3.org/2000/svg">
<path d="M23.5157 51.9656C23.3251 50.761 20.3269 52.027 19.7162 50.2411C19.0942 48.4747 21.641 47.9905 22.8751 47.4781C25.0122 46.575 27.3132 45.975 29.5878 45.6464C30.4759 45.5076 32.3007 45.5969 32.4852 46.9022C32.6075 47.7286 32.4314 48.3045 30.9183 49.2552C30.1098 49.7527 29.6887 50.0307 27.9305 50.6836C27.7048 51.0745 28.0429 51.843 28.2668 52.4935C32.94 66.1111 40.3485 77.7897 52.6838 85.7194C65.0079 93.6686 78.1826 96.0368 92.2477 90.8141C93.4983 90.3634 94.9886 90.1293 95.7123 89.1919C96.2501 88.486 96.1435 87.9033 95.9426 85.8588C95.8699 85.2174 96.3455 84.0326 97.3464 83.6983C99.0203 83.1011 99.7455 84.3277 99.9137 84.8939C101.013 88.8124 101.298 92.8336 101.224 96.257C101.001 97.275 100.145 97.7191 99.4472 97.8895C98.8727 98.027 97.9179 97.4236 97.4557 96.8701C96.9183 96.221 96.7013 95.2878 96.1859 94.1042C80.2556 100.752 64.7278 99.3446 50.1891 90.2209C35.851 81.2913 26.6484 67.6648 23.5157 51.9656Z" fill="black"/>
<path d="M89.0428 61.1568C91.9521 55.9824 97.9799 53.9377 102.503 56.5753C106.44 58.8743 107.634 64.932 105.044 69.5087C102.569 73.8396 96.4248 75.6347 92.1495 73.2445C87.8465 70.8123 86.509 65.6358 89.0428 61.1568ZM93.1311 62.7874C91.7483 65.2728 92.4023 68.0219 94.7118 69.3031C96.728 70.4151 99.7719 69.5664 100.803 67.5554C102.093 65.0949 102.256 61.8791 98.9643 60.4479C97.0924 59.6277 94.7396 59.9112 93.1311 62.7874Z" fill="#CD4631"/>
<path d="M56.5116 37.1104C53.8319 41.6616 47.8643 43.3762 43.4357 40.8454C39.2221 38.4387 38.0239 32.7954 40.9841 28.1195C44.5958 22.3604 48.9094 22.4272 53.9464 24.7619C57.891 26.5963 58.9687 32.8998 56.5116 37.1104ZM44.8844 29.8501C43.1947 32.7316 43.5057 35.804 45.5858 37.031C47.9005 38.3934 51.3791 37.3787 52.8123 34.8964C54.1326 32.6096 53.3246 29.2243 51.1798 28.0641C48.4569 26.5963 46.4304 27.1724 44.8844 29.8501Z" fill="#81ADC8"/>
</svg>
