<svg width="120" height="120" viewBox="0 0 120 120" fill="none" xmlns="http://www.w3.org/2000/svg">
<path d="M58.271 59.1456C58.521 58.1456 58.6668 57.3331 58.9377 56.5414C61.646 48.5414 66.0002 41.4164 70.9585 34.6456C71.5418 33.8539 72.271 33.1039 73.0835 32.6039C73.521 32.3331 74.396 32.3747 74.896 32.6456C75.271 32.8539 75.5418 33.6664 75.4585 34.1247C75.3127 34.9997 75.0002 35.8956 74.5627 36.6872C71.6877 41.9164 68.7918 47.1247 65.8543 52.3122C64.7502 54.2497 63.5835 56.1664 62.4377 58.0831C62.0627 58.7289 61.646 59.3539 61.2085 59.9372C60.7293 60.6039 60.0002 60.9997 59.271 60.5622C58.7918 60.2706 58.271 60.0622 58.271 59.1456Z" fill="#CD4631"/>
<path d="M87.7708 90.1669C86.7708 90.0002 85.6042 89.8753 84.4792 89.6253C80.0417 88.6253 75.6042 87.6253 71.1875 86.5836C70.2292 86.3544 69.2917 85.9586 68.4375 85.5003C67.2917 84.8961 66.8959 84.0419 67.0834 83.1044C67.2709 82.1669 68.0208 81.5836 69.3333 81.5628C70.2292 81.5419 71.1875 81.5628 72.0417 81.7711C77.6458 83.1878 83.25 84.6461 88.8333 86.1253C89.4583 86.2919 90.1042 86.5836 90.5833 87.0003C91.7917 88.0211 91.4167 89.6252 89.875 90.0211C89.2708 90.1669 88.5833 90.1044 87.7708 90.1669Z" fill="#CD4631"/>
<path d="M29.2292 34.3124C29.3125 33.3332 29.5209 32.354 29.7709 31.3957C30 30.5415 30.5834 29.9374 31.5209 29.854C32.3125 29.7915 33.1667 30.5832 33.2917 31.6249C33.4584 33.0207 33.6042 34.4374 33.5417 35.8332C33.3542 40.0415 33.0834 44.2707 32.7917 48.479C32.6875 49.8749 32.5 51.2707 32.2709 52.6665C32.1875 53.1457 32.0209 53.6457 31.75 54.0207C31.0209 55.0832 29.6875 54.9999 29.1667 53.854C28.875 53.2082 28.75 52.4165 28.75 51.7082C28.6459 49.3749 28.9584 37.7707 29.2292 34.3124Z" fill="#CD4631"/>
</svg>
