<svg width="130" height="130" viewBox="0 0 130 130" fill="none" xmlns="http://www.w3.org/2000/svg">
<path d="M48.5243 48.66C46.2674 47.035 44.6198 45.8389 42.9722 44.6652C36.3368 39.9031 29.6563 35.1635 23.066 30.3336C21.4861 29.1826 19.9965 27.7607 18.8906 26.1809C18.2587 25.2329 18.0556 23.5402 18.4844 22.5472C18.7327 21.9604 20.7639 21.6444 21.7344 21.9829C24.1042 22.7729 26.4063 23.8562 28.5729 25.0975C35.3212 29.002 42.0018 33.042 48.9757 37.1947C49.6077 33.042 50.1493 28.9118 50.9167 24.8267C51.5035 21.667 52.316 18.5072 53.1962 15.4152C53.7604 13.4066 54.9566 11.6687 57.3715 12.0072C59.8768 12.3458 60.6893 14.3319 60.6441 16.5663C60.5538 23.2243 60.3281 29.8597 60.1927 36.5177C60.1476 38.0975 60.1927 39.6774 60.1927 41.2573C60.441 41.4829 62.5625 39.5871 63.5556 38.6166C72.0417 30.3111 80.5278 22.0507 89.1042 13.8354C90.3004 12.6843 91.8125 11.7138 93.3472 11.0819C94.1598 10.7434 95.6945 10.9916 96.2361 11.5784C96.7778 12.1652 96.8906 13.7 96.507 14.4899C95.7847 16.002 94.7014 17.3788 93.5504 18.6201C85.9896 26.9257 78.3837 35.1861 70.8004 43.4691C69.9653 44.3718 69.1302 45.3198 67.8889 46.6965C73.5764 46.2902 78.6997 45.8388 83.8229 45.568C94.1372 45.0489 104.474 44.6201 114.788 44.1687C115.42 44.1461 116.097 44.1461 116.639 44.259C120.182 45.0038 119.866 48.5472 117.203 48.9986C113.953 49.5628 110.681 50.2625 107.385 50.601C95.5816 51.7746 83.7778 52.8128 71.974 53.9187C71.7257 53.9413 71.5 54.0316 70.7552 54.2347C74.0052 56.785 77.007 59.1322 80.0087 61.4569C85.6736 65.8805 91.4063 70.2364 96.9809 74.7503C98.4705 75.9691 99.7795 77.5715 100.727 79.2416C101.743 81.002 100.682 82.5142 98.7413 82.0402C96.3716 81.4309 93.9341 80.4604 91.9254 79.0836C82.1302 72.4031 72.4705 65.5194 62.7656 58.7034C61.6823 57.9361 60.599 57.1687 59.0191 56.0177C58.6806 61.1409 58.4097 65.7451 58.0486 70.3493C56.9653 84.0489 55.882 97.7486 54.7535 111.448C54.6181 112.96 54.3247 114.495 53.8733 115.94C53.2639 117.926 51.9097 119.235 49.7205 119.077C47.6667 118.919 46.4705 117.542 46.1094 115.601C45.7709 113.75 45.5903 111.854 45.6129 109.981C45.7483 97.7486 45.9514 85.5385 46.132 73.3059C46.1545 72.4031 46.132 71.5229 46.132 69.9656C45.0938 70.9586 44.3715 71.6132 43.6719 72.3128C35.8629 80.1218 28.0538 87.9534 20.2222 95.7625C19.342 96.6427 18.349 97.5229 17.2205 98.0194C16.4531 98.358 15.099 98.3354 14.5122 97.8614C13.9254 97.3875 13.7899 96.0559 13.7899 95.2659C13.8125 92.7833 15.1441 91.6774 16.3177 90.2555C23.224 81.8823 30.2431 73.5767 37.3073 65.3163C39.8577 62.3371 42.6337 59.5611 45.9063 56.0854C39.7899 56.785 34.4861 57.4621 29.1823 57.9586C24.0816 58.4326 18.9809 58.726 13.8577 59.0871C13.316 59.1323 12.7518 59.042 12.2552 58.9743C9.65974 58.6583 11.1268 55.9048 11.8715 55.7243C16.9948 54.4604 22.1632 53.2416 27.3542 52.2937C33.5156 51.2329 47.125 49.134 48.5243 48.66Z" fill="black"/>
</svg>
