<svg width="92" height="167" viewBox="0 0 92 167" fill="none" xmlns="http://www.w3.org/2000/svg">
<path d="M58.3652 28.3584C58.1696 31.1915 58.0082 34.1222 58.0059 36.9336C57.6377 50.7059 69.1661 57.7672 78.54 61.4072C75.2254 62.76 71.7734 64.981 69.5215 67.9854C66.4198 71.7002 62.2242 76.6432 60.2246 82.4746H60.2236C58.0054 88.7829 56.1716 95.3748 54.4395 101.746C54.3958 101.456 54.3545 101.164 54.3076 100.873L54.2891 100.758L54.2666 100.645L54.0791 99.7393C52.0314 90.4383 46.6707 82.5291 37.4727 76.7598H37.4736C31.3017 72.8594 24.3052 68.092 15.5967 65.2998C26.0675 62.5734 34.536 58.0928 41.3945 52.1445C49.0985 45.463 54.4311 37.2275 58.3652 28.3584Z" stroke="#81ADC8" stroke-width="14"/>
<path d="M95.1467 120.547C95.7885 124.291 98.5601 126.647 101.278 128.11C100.701 128.547 100.169 129.057 99.7219 129.64C98.5663 131.023 96.7714 133.115 95.9172 135.632C95.5514 136.675 95.2109 137.745 94.8879 138.819C93.6818 136.424 91.7972 134.353 89.1877 132.718C87.6806 131.765 85.9565 130.615 83.9534 129.614C86.5992 128.556 88.8875 127.158 90.8596 125.447C92.5597 123.973 93.9647 122.315 95.1467 120.547Z" stroke="#CD4631" stroke-width="8"/>
<path d="M26.6467 148.606C27.2543 150.217 28.4828 151.356 29.7532 152.153C29.585 152.319 29.4265 152.497 29.2805 152.686C28.6235 153.472 27.5536 154.719 26.9583 156.236L26.8547 156.517C26.7528 156.807 26.6542 157.101 26.5579 157.397C25.7935 156.273 24.7658 155.285 23.4641 154.469C22.7886 154.042 22.0234 153.536 21.1575 153.045C22.4252 152.438 23.5574 151.695 24.5637 150.822C25.3528 150.138 26.0403 149.392 26.6467 148.606Z" stroke="black" stroke-width="6"/>
</svg>
