<svg width="14" height="16" viewBox="0 0 14 16" fill="none" xmlns="http://www.w3.org/2000/svg">
<path d="M13.6878 4.19583V6.27963C13.6878 6.27963 12.7006 6.24095 11.9694 6.05503C10.949 5.79501 10.2928 5.39619 10.2928 5.39619C10.2928 5.39619 9.84002 5.11178 9.8034 5.09163V10.5854C9.8034 10.8912 9.71963 11.6554 9.46426 12.2921C9.1309 13.1258 8.61644 13.6729 8.52182 13.7847C8.52182 13.7847 7.89579 14.5241 6.79226 15.0221C5.79759 15.4713 4.92399 15.4599 4.66252 15.4713C4.66252 15.4713 3.15271 15.5311 1.79348 14.648L1.78669 14.6431C1.64319 14.5042 1.50811 14.3574 1.38211 14.2037C0.948363 13.6748 0.682485 13.0495 0.615677 12.871C0.615561 12.8703 0.615561 12.8695 0.615677 12.8687C0.508172 12.5587 0.282312 11.814 0.313172 11.0928C0.367772 9.82024 0.815424 9.03918 0.93378 8.84351C1.24724 8.30992 1.65493 7.83251 2.13871 7.43253C2.56562 7.08738 3.0495 6.81277 3.57052 6.61994C4.13376 6.39354 4.73688 6.2722 5.34756 6.26241V8.37188C5.34756 8.37188 4.23047 8.01759 3.33652 8.64491C2.7115 9.10906 2.37983 9.56184 2.28216 10.3705C2.27809 10.9657 2.43036 11.8078 3.26564 12.3695C3.36308 12.4312 3.45872 12.4861 3.55254 12.534C3.69847 12.7236 3.87608 12.8889 4.0782 13.0231C4.89414 13.5396 5.57783 13.5757 6.45211 13.2403C7.03507 13.016 7.47391 12.5106 7.67739 11.9505C7.80524 11.6008 7.80354 11.2488 7.80354 10.8847V0.529114H9.83833C9.92243 1.00724 10.1551 1.68786 10.7703 2.36199C11.017 2.61652 11.295 2.84156 11.5981 3.03221C11.6876 3.12484 12.1454 3.58282 12.7331 3.86397C13.037 4.0093 13.3574 4.12065 13.6878 4.19583Z" fill="black"/>
</svg>
